<?xml version="1.0" encoding="utf-8" standalone="no"?>
<!DOCTYPE svg PUBLIC "-//W3C//DTD SVG 1.1//EN"
  "http://www.w3.org/Graphics/SVG/1.1/DTD/svg11.dtd">
<svg xmlns:xlink="http://www.w3.org/1999/xlink" width="746.505pt" height="420.482969pt" viewBox="0 0 746.505 420.482969" xmlns="http://www.w3.org/2000/svg" version="1.1">
 <metadata>
  <rdf:RDF xmlns:dc="http://purl.org/dc/elements/1.1/" xmlns:cc="http://creativecommons.org/ns#" xmlns:rdf="http://www.w3.org/1999/02/22-rdf-syntax-ns#">
   <cc:Work>
    <dc:type rdf:resource="http://purl.org/dc/dcmitype/StillImage"/>
    <dc:date>2026-08-06T16:25:12.170372</dc:date>
    <dc:format>image/svg+xml</dc:format>
    <dc:creator>
     <cc:Agent>
      <dc:title>Matplotlib v3.11.1, https://matplotlib.org/</dc:title>
     </cc:Agent>
    </dc:creator>
   </cc:Work>
  </rdf:RDF>
 </metadata>
 <defs>
  <style type="text/css">*{stroke-linejoin: round; stroke-linecap: butt}</style>
 </defs>
 <g id="figure_1">
  <g id="patch_1">
   <path d="M 0 420.482969 
L 746.505 420.482969 
L 746.505 0 
L 0 0 
z
" style="fill: #0d1117"/>
  </g>
  <g id="axes_1">
   <g id="patch_2">
    <path d="M 191.1825 360.781875 
L 701.5225 360.781875 
L 701.5225 50.43625 
L 191.1825 50.43625 
z
" style="fill: #0d1117"/>
   </g>
   <g id="matplotlib.axis_1">
    <g id="xtick_1">
     <g id="line2d_1">
      <path d="M 191.1825 360.781875 
L 191.1825 50.43625 
" clip-path="url(#p3801b7a59b)" style="fill: none; stroke-dasharray: 3.7,1.6; stroke-dashoffset: 0; stroke: #1e293b; stroke-opacity: 0.7"/>
     </g>
     <g id="text_1">
      <!-- 0 -->
      <g style="fill: #c9d1d9" transform="translate(186.72875 380.918594) scale(0.14 -0.14)">
       <defs>
        <path id="DejaVuSans-13" d="M 2034 4250 
Q 1547 4250 1301 3770 
Q 1056 3291 1056 2328 
Q 1056 1369 1301 889 
Q 1547 409 2034 409 
Q 2525 409 2770 889 
Q 3016 1369 3016 2328 
Q 3016 3291 2770 3770 
Q 2525 4250 2034 4250 
z
M 2034 4750 
Q 2819 4750 3233 4129 
Q 3647 3509 3647 2328 
Q 3647 1150 3233 529 
Q 2819 -91 2034 -91 
Q 1250 -91 836 529 
Q 422 1150 422 2328 
Q 422 3509 836 4129 
Q 1250 4750 2034 4750 
z
" transform="scale(0.015625)"/>
       </defs>
       <use xlink:href="#DejaVuSans-13"/>
      </g>
     </g>
    </g>
    <g id="xtick_2">
     <g id="line2d_2">
      <path d="M 285.122786 360.781875 
L 285.122786 50.43625 
" clip-path="url(#p3801b7a59b)" style="fill: none; stroke-dasharray: 3.7,1.6; stroke-dashoffset: 0; stroke: #1e293b; stroke-opacity: 0.7"/>
     </g>
     <g id="text_2">
      <!-- 50 -->
      <g style="fill: #c9d1d9" transform="translate(276.215286 380.918594) scale(0.14 -0.14)">
       <defs>
        <path id="DejaVuSans-18" d="M 691 4666 
L 3169 4666 
L 3169 4134 
L 1269 4134 
L 1269 2991 
Q 1406 3038 1543 3061 
Q 1681 3084 1819 3084 
Q 2600 3084 3056 2656 
Q 3513 2228 3513 1497 
Q 3513 744 3044 326 
Q 2575 -91 1722 -91 
Q 1428 -91 1123 -41 
Q 819 9 494 109 
L 494 744 
Q 775 591 1075 516 
Q 1375 441 1709 441 
Q 2250 441 2565 725 
Q 2881 1009 2881 1497 
Q 2881 1984 2565 2268 
Q 2250 2553 1709 2553 
Q 1456 2553 1204 2497 
Q 953 2441 691 2322 
L 691 4666 
z
" transform="scale(0.015625)"/>
       </defs>
       <use xlink:href="#DejaVuSans-18"/>
       <use xlink:href="#DejaVuSans-13" transform="translate(63.625 0)"/>
      </g>
     </g>
    </g>
    <g id="xtick_3">
     <g id="line2d_3">
      <path d="M 379.063073 360.781875 
L 379.063073 50.43625 
" clip-path="url(#p3801b7a59b)" style="fill: none; stroke-dasharray: 3.7,1.6; stroke-dashoffset: 0; stroke: #1e293b; stroke-opacity: 0.7"/>
     </g>
     <g id="text_3">
      <!-- 100 -->
      <g style="fill: #c9d1d9" transform="translate(365.701823 380.918594) scale(0.14 -0.14)">
       <defs>
        <path id="DejaVuSans-14" d="M 794 531 
L 1825 531 
L 1825 4091 
L 703 3866 
L 703 4441 
L 1819 4666 
L 2450 4666 
L 2450 531 
L 3481 531 
L 3481 0 
L 794 0 
L 794 531 
z
" transform="scale(0.015625)"/>
       </defs>
       <use xlink:href="#DejaVuSans-14"/>
       <use xlink:href="#DejaVuSans-13" transform="translate(63.625 0)"/>
       <use xlink:href="#DejaVuSans-13" transform="translate(127.25 0)"/>
      </g>
     </g>
    </g>
    <g id="xtick_4">
     <g id="line2d_4">
      <path d="M 473.003359 360.781875 
L 473.003359 50.43625 
" clip-path="url(#p3801b7a59b)" style="fill: none; stroke-dasharray: 3.7,1.6; stroke-dashoffset: 0; stroke: #1e293b; stroke-opacity: 0.7"/>
     </g>
     <g id="text_4">
      <!-- 150 -->
      <g style="fill: #c9d1d9" transform="translate(459.642109 380.918594) scale(0.14 -0.14)">
       <use xlink:href="#DejaVuSans-14"/>
       <use xlink:href="#DejaVuSans-18" transform="translate(63.625 0)"/>
       <use xlink:href="#DejaVuSans-13" transform="translate(127.25 0)"/>
      </g>
     </g>
    </g>
    <g id="xtick_5">
     <g id="line2d_5">
      <path d="M 566.943646 360.781875 
L 566.943646 50.43625 
" clip-path="url(#p3801b7a59b)" style="fill: none; stroke-dasharray: 3.7,1.6; stroke-dashoffset: 0; stroke: #1e293b; stroke-opacity: 0.7"/>
     </g>
     <g id="text_5">
      <!-- 200 -->
      <g style="fill: #c9d1d9" transform="translate(553.582396 380.918594) scale(0.14 -0.14)">
       <defs>
        <path id="DejaVuSans-15" d="M 1228 531 
L 3431 531 
L 3431 0 
L 469 0 
L 469 531 
Q 828 903 1448 1529 
Q 2069 2156 2228 2338 
Q 2531 2678 2651 2914 
Q 2772 3150 2772 3378 
Q 2772 3750 2511 3984 
Q 2250 4219 1831 4219 
Q 1534 4219 1204 4116 
Q 875 4013 500 3803 
L 500 4441 
Q 881 4594 1212 4672 
Q 1544 4750 1819 4750 
Q 2544 4750 2975 4387 
Q 3406 4025 3406 3419 
Q 3406 3131 3298 2873 
Q 3191 2616 2906 2266 
Q 2828 2175 2409 1742 
Q 1991 1309 1228 531 
z
" transform="scale(0.015625)"/>
       </defs>
       <use xlink:href="#DejaVuSans-15"/>
       <use xlink:href="#DejaVuSans-13" transform="translate(63.625 0)"/>
       <use xlink:href="#DejaVuSans-13" transform="translate(127.25 0)"/>
      </g>
     </g>
    </g>
    <g id="xtick_6">
     <g id="line2d_6">
      <path d="M 660.883932 360.781875 
L 660.883932 50.43625 
" clip-path="url(#p3801b7a59b)" style="fill: none; stroke-dasharray: 3.7,1.6; stroke-dashoffset: 0; stroke: #1e293b; stroke-opacity: 0.7"/>
     </g>
     <g id="text_6">
      <!-- 250 -->
      <g style="fill: #c9d1d9" transform="translate(647.522682 380.918594) scale(0.14 -0.14)">
       <use xlink:href="#DejaVuSans-15"/>
       <use xlink:href="#DejaVuSans-18" transform="translate(63.625 0)"/>
       <use xlink:href="#DejaVuSans-13" transform="translate(127.25 0)"/>
      </g>
     </g>
    </g>
    <g id="text_7">
     <!-- Nanoseconds (ns) -->
     <g style="fill: #c9d1d9" transform="translate(383.724375 409.919688) scale(0.14 -0.14)">
      <defs>
       <path id="DejaVuSans-31" d="M 628 4666 
L 1478 4666 
L 3547 763 
L 3547 4666 
L 4159 4666 
L 4159 0 
L 3309 0 
L 1241 3903 
L 1241 0 
L 628 0 
L 628 4666 
z
" transform="scale(0.015625)"/>
       <path id="DejaVuSans-44" d="M 2194 1759 
Q 1497 1759 1228 1600 
Q 959 1441 959 1056 
Q 959 750 1161 570 
Q 1363 391 1709 391 
Q 2188 391 2477 730 
Q 2766 1069 2766 1631 
L 2766 1759 
L 2194 1759 
z
M 3341 1997 
L 3341 0 
L 2766 0 
L 2766 531 
Q 2569 213 2275 61 
Q 1981 -91 1556 -91 
Q 1019 -91 701 211 
Q 384 513 384 1019 
Q 384 1609 779 1909 
Q 1175 2209 1959 2209 
L 2766 2209 
L 2766 2266 
Q 2766 2663 2505 2880 
Q 2244 3097 1772 3097 
Q 1472 3097 1187 3025 
Q 903 2953 641 2809 
L 641 3341 
Q 956 3463 1253 3523 
Q 1550 3584 1831 3584 
Q 2591 3584 2966 3190 
Q 3341 2797 3341 1997 
z
" transform="scale(0.015625)"/>
       <path id="DejaVuSans-51" d="M 3513 2113 
L 3513 0 
L 2938 0 
L 2938 2094 
Q 2938 2591 2744 2837 
Q 2550 3084 2163 3084 
Q 1697 3084 1428 2787 
Q 1159 2491 1159 1978 
L 1159 0 
L 581 0 
L 581 3500 
L 1159 3500 
L 1159 2956 
Q 1366 3272 1645 3428 
Q 1925 3584 2291 3584 
Q 2894 3584 3203 3211 
Q 3513 2838 3513 2113 
z
" transform="scale(0.015625)"/>
       <path id="DejaVuSans-52" d="M 1959 3097 
Q 1497 3097 1228 2736 
Q 959 2375 959 1747 
Q 959 1119 1226 758 
Q 1494 397 1959 397 
Q 2419 397 2687 759 
Q 2956 1122 2956 1747 
Q 2956 2369 2687 2733 
Q 2419 3097 1959 3097 
z
M 1959 3584 
Q 2709 3584 3137 3096 
Q 3566 2609 3566 1747 
Q 3566 888 3137 398 
Q 2709 -91 1959 -91 
Q 1206 -91 779 398 
Q 353 888 353 1747 
Q 353 2609 779 3096 
Q 1206 3584 1959 3584 
z
" transform="scale(0.015625)"/>
       <path id="DejaVuSans-56" d="M 2834 3397 
L 2834 2853 
Q 2591 2978 2328 3040 
Q 2066 3103 1784 3103 
Q 1356 3103 1142 2972 
Q 928 2841 928 2578 
Q 928 2378 1081 2264 
Q 1234 2150 1697 2047 
L 1894 2003 
Q 2506 1872 2764 1633 
Q 3022 1394 3022 966 
Q 3022 478 2636 193 
Q 2250 -91 1575 -91 
Q 1294 -91 989 -36 
Q 684 19 347 128 
L 347 722 
Q 666 556 975 473 
Q 1284 391 1588 391 
Q 1994 391 2212 530 
Q 2431 669 2431 922 
Q 2431 1156 2273 1281 
Q 2116 1406 1581 1522 
L 1381 1569 
Q 847 1681 609 1914 
Q 372 2147 372 2553 
Q 372 3047 722 3315 
Q 1072 3584 1716 3584 
Q 2034 3584 2315 3537 
Q 2597 3491 2834 3397 
z
" transform="scale(0.015625)"/>
       <path id="DejaVuSans-48" d="M 3597 1894 
L 3597 1613 
L 953 1613 
Q 991 1019 1311 708 
Q 1631 397 2203 397 
Q 2534 397 2845 478 
Q 3156 559 3463 722 
L 3463 178 
Q 3153 47 2828 -22 
Q 2503 -91 2169 -91 
Q 1331 -91 842 396 
Q 353 884 353 1716 
Q 353 2575 817 3079 
Q 1281 3584 2069 3584 
Q 2775 3584 3186 3129 
Q 3597 2675 3597 1894 
z
M 3022 2063 
Q 3016 2534 2758 2815 
Q 2500 3097 2075 3097 
Q 1594 3097 1305 2825 
Q 1016 2553 972 2059 
L 3022 2063 
z
" transform="scale(0.015625)"/>
       <path id="DejaVuSans-46" d="M 3122 3366 
L 3122 2828 
Q 2878 2963 2633 3030 
Q 2388 3097 2138 3097 
Q 1578 3097 1268 2742 
Q 959 2388 959 1747 
Q 959 1106 1268 751 
Q 1578 397 2138 397 
Q 2388 397 2633 464 
Q 2878 531 3122 666 
L 3122 134 
Q 2881 22 2623 -34 
Q 2366 -91 2075 -91 
Q 1284 -91 818 406 
Q 353 903 353 1747 
Q 353 2603 823 3093 
Q 1294 3584 2113 3584 
Q 2378 3584 2631 3529 
Q 2884 3475 3122 3366 
z
" transform="scale(0.015625)"/>
       <path id="DejaVuSans-47" d="M 2906 2969 
L 2906 4863 
L 3481 4863 
L 3481 0 
L 2906 0 
L 2906 525 
Q 2725 213 2448 61 
Q 2172 -91 1784 -91 
Q 1150 -91 751 415 
Q 353 922 353 1747 
Q 353 2572 751 3078 
Q 1150 3584 1784 3584 
Q 2172 3584 2448 3432 
Q 2725 3281 2906 2969 
z
M 947 1747 
Q 947 1113 1208 752 
Q 1469 391 1925 391 
Q 2381 391 2643 752 
Q 2906 1113 2906 1747 
Q 2906 2381 2643 2742 
Q 2381 3103 1925 3103 
Q 1469 3103 1208 2742 
Q 947 2381 947 1747 
z
" transform="scale(0.015625)"/>
       <path id="DejaVuSans-3" transform="scale(0.015625)"/>
       <path id="DejaVuSans-b" d="M 1984 4856 
Q 1566 4138 1362 3434 
Q 1159 2731 1159 2009 
Q 1159 1288 1364 580 
Q 1569 -128 1984 -844 
L 1484 -844 
Q 1016 -109 783 600 
Q 550 1309 550 2009 
Q 550 2706 781 3412 
Q 1013 4119 1484 4856 
L 1984 4856 
z
" transform="scale(0.015625)"/>
       <path id="DejaVuSans-c" d="M 513 4856 
L 1013 4856 
Q 1481 4119 1714 3412 
Q 1947 2706 1947 2009 
Q 1947 1309 1714 600 
Q 1481 -109 1013 -844 
L 513 -844 
Q 928 -128 1133 580 
Q 1338 1288 1338 2009 
Q 1338 2731 1133 3434 
Q 928 4138 513 4856 
z
" transform="scale(0.015625)"/>
      </defs>
      <use xlink:href="#DejaVuSans-31"/>
      <use xlink:href="#DejaVuSans-44" transform="translate(74.8125 0)"/>
      <use xlink:href="#DejaVuSans-51" transform="translate(136.09375 0)"/>
      <use xlink:href="#DejaVuSans-52" transform="translate(199.46875 0)"/>
      <use xlink:href="#DejaVuSans-56" transform="translate(260.65625 0)"/>
      <use xlink:href="#DejaVuSans-48" transform="translate(312.75 0)"/>
      <use xlink:href="#DejaVuSans-46" transform="translate(374.28125 0)"/>
      <use xlink:href="#DejaVuSans-52" transform="translate(429.265625 0)"/>
      <use xlink:href="#DejaVuSans-51" transform="translate(490.453125 0)"/>
      <use xlink:href="#DejaVuSans-47" transform="translate(553.828125 0)"/>
      <use xlink:href="#DejaVuSans-56" transform="translate(617.3125 0)"/>
      <use xlink:href="#DejaVuSans-3" transform="translate(669.40625 0)"/>
      <use xlink:href="#DejaVuSans-b" transform="translate(701.1875 0)"/>
      <use xlink:href="#DejaVuSans-51" transform="translate(740.203125 0)"/>
      <use xlink:href="#DejaVuSans-56" transform="translate(803.578125 0)"/>
      <use xlink:href="#DejaVuSans-c" transform="translate(855.671875 0)"/>
     </g>
    </g>
   </g>
   <g id="matplotlib.axis_2">
    <g id="ytick_1">
     <g id="line2d_7">
      <path d="M 191.1825 79.657104 
L 701.5225 79.657104 
" clip-path="url(#p3801b7a59b)" style="fill: none; stroke-dasharray: 3.7,1.6; stroke-dashoffset: 0; stroke: #1e293b; stroke-opacity: 0.7"/>
     </g>
     <g id="text_8">
      <!-- zThread -->
      <g style="fill: #c9d1d9" transform="translate(109.0725 85.735854) scale(0.16 -0.16)">
       <defs>
        <path id="DejaVuSans-Bold-5d" d="M 366 3500 
L 3419 3500 
L 3419 2719 
L 1575 800 
L 3419 800 
L 3419 0 
L 288 0 
L 288 781 
L 2131 2700 
L 366 2700 
L 366 3500 
z
" transform="scale(0.015625)"/>
        <path id="DejaVuSans-Bold-37" d="M 31 4666 
L 4331 4666 
L 4331 3756 
L 2784 3756 
L 2784 0 
L 1581 0 
L 1581 3756 
L 31 3756 
L 31 4666 
z
" transform="scale(0.015625)"/>
        <path id="DejaVuSans-Bold-4b" d="M 4056 2131 
L 4056 0 
L 2931 0 
L 2931 347 
L 2931 1625 
Q 2931 2084 2911 2256 
Q 2891 2428 2841 2509 
Q 2775 2619 2662 2680 
Q 2550 2741 2406 2741 
Q 2056 2741 1856 2470 
Q 1656 2200 1656 1722 
L 1656 0 
L 538 0 
L 538 4863 
L 1656 4863 
L 1656 2988 
Q 1909 3294 2193 3439 
Q 2478 3584 2822 3584 
Q 3428 3584 3742 3212 
Q 4056 2841 4056 2131 
z
" transform="scale(0.015625)"/>
        <path id="DejaVuSans-Bold-55" d="M 3138 2547 
Q 2991 2616 2845 2648 
Q 2700 2681 2553 2681 
Q 2122 2681 1889 2404 
Q 1656 2128 1656 1613 
L 1656 0 
L 538 0 
L 538 3500 
L 1656 3500 
L 1656 2925 
Q 1872 3269 2151 3426 
Q 2431 3584 2822 3584 
Q 2878 3584 2943 3579 
Q 3009 3575 3134 3559 
L 3138 2547 
z
" transform="scale(0.015625)"/>
        <path id="DejaVuSans-Bold-48" d="M 4031 1759 
L 4031 1441 
L 1416 1441 
Q 1456 1047 1700 850 
Q 1944 653 2381 653 
Q 2734 653 3104 758 
Q 3475 863 3866 1075 
L 3866 213 
Q 3469 63 3072 -14 
Q 2675 -91 2278 -91 
Q 1328 -91 801 392 
Q 275 875 275 1747 
Q 275 2603 792 3093 
Q 1309 3584 2216 3584 
Q 3041 3584 3536 3087 
Q 4031 2591 4031 1759 
z
M 2881 2131 
Q 2881 2450 2695 2645 
Q 2509 2841 2209 2841 
Q 1884 2841 1681 2658 
Q 1478 2475 1428 2131 
L 2881 2131 
z
" transform="scale(0.015625)"/>
        <path id="DejaVuSans-Bold-44" d="M 2106 1575 
Q 1756 1575 1579 1456 
Q 1403 1338 1403 1106 
Q 1403 894 1545 773 
Q 1688 653 1941 653 
Q 2256 653 2472 879 
Q 2688 1106 2688 1447 
L 2688 1575 
L 2106 1575 
z
M 3816 1997 
L 3816 0 
L 2688 0 
L 2688 519 
Q 2463 200 2181 54 
Q 1900 -91 1497 -91 
Q 953 -91 614 226 
Q 275 544 275 1050 
Q 275 1666 698 1953 
Q 1122 2241 2028 2241 
L 2688 2241 
L 2688 2328 
Q 2688 2594 2478 2717 
Q 2269 2841 1825 2841 
Q 1466 2841 1156 2769 
Q 847 2697 581 2553 
L 581 3406 
Q 941 3494 1303 3539 
Q 1666 3584 2028 3584 
Q 2975 3584 3395 3211 
Q 3816 2838 3816 1997 
z
" transform="scale(0.015625)"/>
        <path id="DejaVuSans-Bold-47" d="M 2919 2988 
L 2919 4863 
L 4044 4863 
L 4044 0 
L 2919 0 
L 2919 506 
Q 2688 197 2409 53 
Q 2131 -91 1766 -91 
Q 1119 -91 703 423 
Q 288 938 288 1747 
Q 288 2556 703 3070 
Q 1119 3584 1766 3584 
Q 2128 3584 2408 3439 
Q 2688 3294 2919 2988 
z
M 2181 722 
Q 2541 722 2730 984 
Q 2919 1247 2919 1747 
Q 2919 2247 2730 2509 
Q 2541 2772 2181 2772 
Q 1825 2772 1636 2509 
Q 1447 2247 1447 1747 
Q 1447 1247 1636 984 
Q 1825 722 2181 722 
z
" transform="scale(0.015625)"/>
       </defs>
       <use xlink:href="#DejaVuSans-Bold-5d"/>
       <use xlink:href="#DejaVuSans-Bold-37" transform="translate(58.203125 0)"/>
       <use xlink:href="#DejaVuSans-Bold-4b" transform="translate(126.421875 0)"/>
       <use xlink:href="#DejaVuSans-Bold-55" transform="translate(197.609375 0)"/>
       <use xlink:href="#DejaVuSans-Bold-48" transform="translate(246.921875 0)"/>
       <use xlink:href="#DejaVuSans-Bold-44" transform="translate(314.75 0)"/>
       <use xlink:href="#DejaVuSans-Bold-47" transform="translate(382.234375 0)"/>
      </g>
     </g>
    </g>
    <g id="ytick_2">
     <g id="line2d_8">
      <path d="M 191.1825 130.037888 
L 701.5225 130.037888 
" clip-path="url(#p3801b7a59b)" style="fill: none; stroke-dasharray: 3.7,1.6; stroke-dashoffset: 0; stroke: #1e293b; stroke-opacity: 0.7"/>
     </g>
     <g id="text_9">
      <!-- Netty -->
      <g style="fill: #c9d1d9" transform="translate(131.715 136.116013) scale(0.16 -0.16)">
       <defs>
        <path id="DejaVuSans-Bold-31" d="M 588 4666 
L 1931 4666 
L 3628 1466 
L 3628 4666 
L 4769 4666 
L 4769 0 
L 3425 0 
L 1728 3200 
L 1728 0 
L 588 0 
L 588 4666 
z
" transform="scale(0.015625)"/>
        <path id="DejaVuSans-Bold-57" d="M 1759 4494 
L 1759 3500 
L 2913 3500 
L 2913 2700 
L 1759 2700 
L 1759 1216 
Q 1759 972 1856 886 
Q 1953 800 2241 800 
L 2816 800 
L 2816 0 
L 1856 0 
Q 1194 0 917 276 
Q 641 553 641 1216 
L 641 2700 
L 84 2700 
L 84 3500 
L 641 3500 
L 641 4494 
L 1759 4494 
z
" transform="scale(0.015625)"/>
        <path id="DejaVuSans-Bold-5c" d="M 78 3500 
L 1197 3500 
L 2138 1125 
L 2938 3500 
L 4056 3500 
L 2584 -331 
Q 2363 -916 2067 -1148 
Q 1772 -1381 1288 -1381 
L 641 -1381 
L 641 -647 
L 991 -647 
Q 1275 -647 1404 -556 
Q 1534 -466 1606 -231 
L 1638 -134 
L 78 3500 
z
" transform="scale(0.015625)"/>
       </defs>
       <use xlink:href="#DejaVuSans-Bold-31"/>
       <use xlink:href="#DejaVuSans-Bold-48" transform="translate(83.6875 0)"/>
       <use xlink:href="#DejaVuSans-Bold-57" transform="translate(151.515625 0)"/>
       <use xlink:href="#DejaVuSans-Bold-57" transform="translate(199.3125 0)"/>
       <use xlink:href="#DejaVuSans-Bold-5c" transform="translate(247.109375 0)"/>
      </g>
     </g>
    </g>
    <g id="ytick_3">
     <g id="line2d_9">
      <path d="M 191.1825 180.418671 
L 701.5225 180.418671 
" clip-path="url(#p3801b7a59b)" style="fill: none; stroke-dasharray: 3.7,1.6; stroke-dashoffset: 0; stroke: #1e293b; stroke-opacity: 0.7"/>
     </g>
     <g id="text_10">
      <!-- Reactor -->
      <g style="fill: #c9d1d9" transform="translate(111.6975 186.496796) scale(0.16 -0.16)">
       <defs>
        <path id="DejaVuSans-Bold-35" d="M 2297 2597 
Q 2675 2597 2839 2737 
Q 3003 2878 3003 3200 
Q 3003 3519 2839 3656 
Q 2675 3794 2297 3794 
L 1791 3794 
L 1791 2597 
L 2297 2597 
z
M 1791 1766 
L 1791 0 
L 588 0 
L 588 4666 
L 2425 4666 
Q 3347 4666 3776 4356 
Q 4206 4047 4206 3378 
Q 4206 2916 3982 2619 
Q 3759 2322 3309 2181 
Q 3556 2125 3751 1926 
Q 3947 1728 4147 1325 
L 4800 0 
L 3519 0 
L 2950 1159 
Q 2778 1509 2601 1637 
Q 2425 1766 2131 1766 
L 1791 1766 
z
" transform="scale(0.015625)"/>
        <path id="DejaVuSans-Bold-46" d="M 3366 3391 
L 3366 2478 
Q 3138 2634 2908 2709 
Q 2678 2784 2431 2784 
Q 1963 2784 1702 2511 
Q 1441 2238 1441 1747 
Q 1441 1256 1702 982 
Q 1963 709 2431 709 
Q 2694 709 2930 787 
Q 3166 866 3366 1019 
L 3366 103 
Q 3103 6 2833 -42 
Q 2563 -91 2291 -91 
Q 1344 -91 809 395 
Q 275 881 275 1747 
Q 275 2613 809 3098 
Q 1344 3584 2291 3584 
Q 2566 3584 2833 3536 
Q 3100 3488 3366 3391 
z
" transform="scale(0.015625)"/>
        <path id="DejaVuSans-Bold-52" d="M 2203 2784 
Q 1831 2784 1636 2517 
Q 1441 2250 1441 1747 
Q 1441 1244 1636 976 
Q 1831 709 2203 709 
Q 2569 709 2762 976 
Q 2956 1244 2956 1747 
Q 2956 2250 2762 2517 
Q 2569 2784 2203 2784 
z
M 2203 3584 
Q 3106 3584 3614 3096 
Q 4122 2609 4122 1747 
Q 4122 884 3614 396 
Q 3106 -91 2203 -91 
Q 1297 -91 786 396 
Q 275 884 275 1747 
Q 275 2609 786 3096 
Q 1297 3584 2203 3584 
z
" transform="scale(0.015625)"/>
       </defs>
       <use xlink:href="#DejaVuSans-Bold-35"/>
       <use xlink:href="#DejaVuSans-Bold-48" transform="translate(77 0)"/>
       <use xlink:href="#DejaVuSans-Bold-44" transform="translate(144.828125 0)"/>
       <use xlink:href="#DejaVuSans-Bold-46" transform="translate(212.3125 0)"/>
       <use xlink:href="#DejaVuSans-Bold-57" transform="translate(271.59375 0)"/>
       <use xlink:href="#DejaVuSans-Bold-52" transform="translate(319.390625 0)"/>
       <use xlink:href="#DejaVuSans-Bold-55" transform="translate(388.09375 0)"/>
      </g>
     </g>
    </g>
    <g id="ytick_4">
     <g id="line2d_10">
      <path d="M 191.1825 230.799454 
L 701.5225 230.799454 
" clip-path="url(#p3801b7a59b)" style="fill: none; stroke-dasharray: 3.7,1.6; stroke-dashoffset: 0; stroke: #1e293b; stroke-opacity: 0.7"/>
     </g>
     <g id="text_11">
      <!-- SynchronousQueue -->
      <g style="fill: #c9d1d9" transform="translate(7.2 236.878204) scale(0.16 -0.16)">
       <defs>
        <path id="DejaVuSans-Bold-36" d="M 3834 4519 
L 3834 3531 
Q 3450 3703 3084 3790 
Q 2719 3878 2394 3878 
Q 1963 3878 1756 3759 
Q 1550 3641 1550 3391 
Q 1550 3203 1689 3098 
Q 1828 2994 2194 2919 
L 2706 2816 
Q 3484 2659 3812 2340 
Q 4141 2022 4141 1434 
Q 4141 663 3683 286 
Q 3225 -91 2284 -91 
Q 1841 -91 1394 -6 
Q 947 78 500 244 
L 500 1259 
Q 947 1022 1364 901 
Q 1781 781 2169 781 
Q 2563 781 2772 912 
Q 2981 1044 2981 1288 
Q 2981 1506 2839 1625 
Q 2697 1744 2272 1838 
L 1806 1941 
Q 1106 2091 782 2419 
Q 459 2747 459 3303 
Q 459 4000 909 4375 
Q 1359 4750 2203 4750 
Q 2588 4750 2994 4692 
Q 3400 4634 3834 4519 
z
" transform="scale(0.015625)"/>
        <path id="DejaVuSans-Bold-51" d="M 4056 2131 
L 4056 0 
L 2931 0 
L 2931 347 
L 2931 1631 
Q 2931 2084 2911 2256 
Q 2891 2428 2841 2509 
Q 2775 2619 2662 2680 
Q 2550 2741 2406 2741 
Q 2056 2741 1856 2470 
Q 1656 2200 1656 1722 
L 1656 0 
L 538 0 
L 538 3500 
L 1656 3500 
L 1656 2988 
Q 1909 3294 2193 3439 
Q 2478 3584 2822 3584 
Q 3428 3584 3742 3212 
Q 4056 2841 4056 2131 
z
" transform="scale(0.015625)"/>
        <path id="DejaVuSans-Bold-58" d="M 500 1363 
L 500 3500 
L 1625 3500 
L 1625 3150 
Q 1625 2866 1622 2436 
Q 1619 2006 1619 1863 
Q 1619 1441 1641 1255 
Q 1663 1069 1716 984 
Q 1784 875 1895 815 
Q 2006 756 2150 756 
Q 2500 756 2700 1025 
Q 2900 1294 2900 1772 
L 2900 3500 
L 4019 3500 
L 4019 0 
L 2900 0 
L 2900 506 
Q 2647 200 2364 54 
Q 2081 -91 1741 -91 
Q 1134 -91 817 281 
Q 500 653 500 1363 
z
" transform="scale(0.015625)"/>
        <path id="DejaVuSans-Bold-56" d="M 3272 3391 
L 3272 2541 
Q 2913 2691 2578 2766 
Q 2244 2841 1947 2841 
Q 1628 2841 1473 2761 
Q 1319 2681 1319 2516 
Q 1319 2381 1436 2309 
Q 1553 2238 1856 2203 
L 2053 2175 
Q 2913 2066 3209 1816 
Q 3506 1566 3506 1031 
Q 3506 472 3093 190 
Q 2681 -91 1863 -91 
Q 1516 -91 1145 -36 
Q 775 19 384 128 
L 384 978 
Q 719 816 1070 734 
Q 1422 653 1784 653 
Q 2113 653 2278 743 
Q 2444 834 2444 1013 
Q 2444 1163 2330 1236 
Q 2216 1309 1875 1350 
L 1678 1375 
Q 931 1469 631 1722 
Q 331 1975 331 2491 
Q 331 3047 712 3315 
Q 1094 3584 1881 3584 
Q 2191 3584 2531 3537 
Q 2872 3491 3272 3391 
z
" transform="scale(0.015625)"/>
        <path id="DejaVuSans-Bold-34" d="M 2847 -84 
L 2753 -84 
Q 1600 -84 959 553 
Q 319 1191 319 2328 
Q 319 3463 958 4106 
Q 1597 4750 2719 4750 
Q 3853 4750 4486 4112 
Q 5119 3475 5119 2328 
Q 5119 1541 4783 972 
Q 4447 403 3816 116 
L 4756 -934 
L 3609 -934 
L 2847 -84 
z
M 2719 3878 
Q 2169 3878 1866 3472 
Q 1563 3066 1563 2328 
Q 1563 1578 1859 1179 
Q 2156 781 2719 781 
Q 3272 781 3575 1187 
Q 3878 1594 3878 2328 
Q 3878 3066 3575 3472 
Q 3272 3878 2719 3878 
z
" transform="scale(0.015625)"/>
       </defs>
       <use xlink:href="#DejaVuSans-Bold-36"/>
       <use xlink:href="#DejaVuSans-Bold-5c" transform="translate(72.015625 0)"/>
       <use xlink:href="#DejaVuSans-Bold-51" transform="translate(137.203125 0)"/>
       <use xlink:href="#DejaVuSans-Bold-46" transform="translate(208.390625 0)"/>
       <use xlink:href="#DejaVuSans-Bold-4b" transform="translate(267.671875 0)"/>
       <use xlink:href="#DejaVuSans-Bold-55" transform="translate(338.859375 0)"/>
       <use xlink:href="#DejaVuSans-Bold-52" transform="translate(388.171875 0)"/>
       <use xlink:href="#DejaVuSans-Bold-51" transform="translate(456.875 0)"/>
       <use xlink:href="#DejaVuSans-Bold-52" transform="translate(528.0625 0)"/>
       <use xlink:href="#DejaVuSans-Bold-58" transform="translate(596.765625 0)"/>
       <use xlink:href="#DejaVuSans-Bold-56" transform="translate(667.953125 0)"/>
       <use xlink:href="#DejaVuSans-Bold-34" transform="translate(727.46875 0)"/>
       <use xlink:href="#DejaVuSans-Bold-58" transform="translate(812.484375 0)"/>
       <use xlink:href="#DejaVuSans-Bold-48" transform="translate(883.671875 0)"/>
       <use xlink:href="#DejaVuSans-Bold-58" transform="translate(951.5 0)"/>
       <use xlink:href="#DejaVuSans-Bold-48" transform="translate(1022.6875 0)"/>
      </g>
     </g>
    </g>
    <g id="ytick_5">
     <g id="line2d_11">
      <path d="M 191.1825 281.180237 
L 701.5225 281.180237 
" clip-path="url(#p3801b7a59b)" style="fill: none; stroke-dasharray: 3.7,1.6; stroke-dashoffset: 0; stroke: #1e293b; stroke-opacity: 0.7"/>
     </g>
     <g id="text_12">
      <!-- Vert.x -->
      <g style="fill: #c9d1d9" transform="translate(127.3875 287.258362) scale(0.16 -0.16)">
       <defs>
        <path id="DejaVuSans-Bold-39" d="M 31 4666 
L 1241 4666 
L 2478 1222 
L 3713 4666 
L 4922 4666 
L 3194 0 
L 1759 0 
L 31 4666 
z
" transform="scale(0.015625)"/>
        <path id="DejaVuSans-Bold-11" d="M 653 1209 
L 1778 1209 
L 1778 0 
L 653 0 
L 653 1209 
z
" transform="scale(0.015625)"/>
        <path id="DejaVuSans-Bold-5b" d="M 1422 1791 
L 159 3500 
L 1344 3500 
L 2059 2463 
L 2784 3500 
L 3969 3500 
L 2706 1797 
L 4031 0 
L 2847 0 
L 2059 1106 
L 1281 0 
L 97 0 
L 1422 1791 
z
" transform="scale(0.015625)"/>
       </defs>
       <use xlink:href="#DejaVuSans-Bold-39"/>
       <use xlink:href="#DejaVuSans-Bold-48" transform="translate(71.921875 0)"/>
       <use xlink:href="#DejaVuSans-Bold-55" transform="translate(139.75 0)"/>
       <use xlink:href="#DejaVuSans-Bold-57" transform="translate(189.0625 0)"/>
       <use xlink:href="#DejaVuSans-Bold-11" transform="translate(236.859375 0)"/>
       <use xlink:href="#DejaVuSans-Bold-5b" transform="translate(274.84375 0)"/>
      </g>
     </g>
    </g>
    <g id="ytick_6">
     <g id="line2d_12">
      <path d="M 191.1825 331.561021 
L 701.5225 331.561021 
" clip-path="url(#p3801b7a59b)" style="fill: none; stroke-dasharray: 3.7,1.6; stroke-dashoffset: 0; stroke: #1e293b; stroke-opacity: 0.7"/>
     </g>
     <g id="text_13">
      <!-- VirtualThreads -->
      <g style="fill: #c9d1d9" transform="translate(48.065 337.639771) scale(0.16 -0.16)">
       <defs>
        <path id="DejaVuSans-Bold-4c" d="M 538 3500 
L 1656 3500 
L 1656 0 
L 538 0 
L 538 3500 
z
M 538 4863 
L 1656 4863 
L 1656 3950 
L 538 3950 
L 538 4863 
z
" transform="scale(0.015625)"/>
        <path id="DejaVuSans-Bold-4f" d="M 538 4863 
L 1656 4863 
L 1656 0 
L 538 0 
L 538 4863 
z
" transform="scale(0.015625)"/>
       </defs>
       <use xlink:href="#DejaVuSans-Bold-39"/>
       <use xlink:href="#DejaVuSans-Bold-4c" transform="translate(75.640625 0)"/>
       <use xlink:href="#DejaVuSans-Bold-55" transform="translate(109.921875 0)"/>
       <use xlink:href="#DejaVuSans-Bold-57" transform="translate(159.234375 0)"/>
       <use xlink:href="#DejaVuSans-Bold-58" transform="translate(207.03125 0)"/>
       <use xlink:href="#DejaVuSans-Bold-44" transform="translate(278.21875 0)"/>
       <use xlink:href="#DejaVuSans-Bold-4f" transform="translate(345.703125 0)"/>
       <use xlink:href="#DejaVuSans-Bold-37" transform="translate(379.984375 0)"/>
       <use xlink:href="#DejaVuSans-Bold-4b" transform="translate(448.203125 0)"/>
       <use xlink:href="#DejaVuSans-Bold-55" transform="translate(519.390625 0)"/>
       <use xlink:href="#DejaVuSans-Bold-48" transform="translate(568.703125 0)"/>
       <use xlink:href="#DejaVuSans-Bold-44" transform="translate(636.53125 0)"/>
       <use xlink:href="#DejaVuSans-Bold-47" transform="translate(704.015625 0)"/>
       <use xlink:href="#DejaVuSans-Bold-56" transform="translate(775.59375 0)"/>
      </g>
     </g>
    </g>
   </g>
   <g id="patch_3">
    <path d="M 191.1825 64.542869 
L 395.784444 64.542869 
L 395.784444 94.771339 
L 191.1825 94.771339 
z
" clip-path="url(#p3801b7a59b)" style="fill: #38bdf8; opacity: 0.9"/>
   </g>
   <g id="patch_4">
    <path d="M 191.1825 114.923653 
L 439.748498 114.923653 
L 439.748498 145.152123 
L 191.1825 145.152123 
z
" clip-path="url(#p3801b7a59b)" style="fill: #34d399; opacity: 0.9"/>
   </g>
   <g id="patch_5">
    <path d="M 191.1825 165.304436 
L 441.439423 165.304436 
L 441.439423 195.532906 
L 191.1825 195.532906 
z
" clip-path="url(#p3801b7a59b)" style="fill: #f472b6; opacity: 0.9"/>
   </g>
   <g id="patch_6">
    <path d="M 191.1825 215.685219 
L 467.179061 215.685219 
L 467.179061 245.913689 
L 191.1825 245.913689 
z
" clip-path="url(#p3801b7a59b)" style="fill: #94a3b8; opacity: 0.9"/>
   </g>
   <g id="patch_7">
    <path d="M 191.1825 266.066002 
L 524.106875 266.066002 
L 524.106875 296.294472 
L 191.1825 296.294472 
z
" clip-path="url(#p3801b7a59b)" style="fill: #a78bfa; opacity: 0.9"/>
   </g>
   <g id="patch_8">
    <path d="M 191.1825 316.446786 
L 634.956413 316.446786 
L 634.956413 346.675256 
L 191.1825 346.675256 
z
" clip-path="url(#p3801b7a59b)" style="fill: #f87171; opacity: 0.9"/>
   </g>
   <g id="patch_9">
    <path d="M 191.1825 360.781875 
L 191.1825 50.43625 
" style="fill: none; stroke: #1e293b; stroke-width: 1.25; stroke-linejoin: miter; stroke-linecap: square"/>
   </g>
   <g id="patch_10">
    <path d="M 191.1825 360.781875 
L 701.5225 360.781875 
" style="fill: none; stroke: #1e293b; stroke-width: 1.25; stroke-linejoin: miter; stroke-linecap: square"/>
   </g>
   <g id="text_14">
    <!-- 108.9 -->
    <g style="fill: #ffffff" transform="translate(404.659922 83.293823) scale(0.14 -0.14)">
     <defs>
      <path id="DejaVuSans-Bold-14" d="M 750 831 
L 1813 831 
L 1813 3847 
L 722 3622 
L 722 4441 
L 1806 4666 
L 2950 4666 
L 2950 831 
L 4013 831 
L 4013 0 
L 750 0 
L 750 831 
z
" transform="scale(0.015625)"/>
      <path id="DejaVuSans-Bold-13" d="M 2944 2338 
Q 2944 3213 2780 3570 
Q 2616 3928 2228 3928 
Q 1841 3928 1675 3570 
Q 1509 3213 1509 2338 
Q 1509 1453 1675 1090 
Q 1841 728 2228 728 
Q 2613 728 2778 1090 
Q 2944 1453 2944 2338 
z
M 4147 2328 
Q 4147 1169 3647 539 
Q 3147 -91 2228 -91 
Q 1306 -91 806 539 
Q 306 1169 306 2328 
Q 306 3491 806 4120 
Q 1306 4750 2228 4750 
Q 3147 4750 3647 4120 
Q 4147 3491 4147 2328 
z
" transform="scale(0.015625)"/>
      <path id="DejaVuSans-Bold-1b" d="M 2228 2088 
Q 1891 2088 1709 1903 
Q 1528 1719 1528 1375 
Q 1528 1031 1709 848 
Q 1891 666 2228 666 
Q 2563 666 2741 848 
Q 2919 1031 2919 1375 
Q 2919 1722 2741 1905 
Q 2563 2088 2228 2088 
z
M 1350 2484 
Q 925 2613 709 2878 
Q 494 3144 494 3541 
Q 494 4131 934 4440 
Q 1375 4750 2228 4750 
Q 3075 4750 3515 4442 
Q 3956 4134 3956 3541 
Q 3956 3144 3739 2878 
Q 3522 2613 3097 2484 
Q 3572 2353 3814 2058 
Q 4056 1763 4056 1313 
Q 4056 619 3595 264 
Q 3134 -91 2228 -91 
Q 1319 -91 855 264 
Q 391 619 391 1313 
Q 391 1763 633 2058 
Q 875 2353 1350 2484 
z
M 1631 3419 
Q 1631 3141 1786 2991 
Q 1941 2841 2228 2841 
Q 2509 2841 2662 2991 
Q 2816 3141 2816 3419 
Q 2816 3697 2662 3845 
Q 2509 3994 2228 3994 
Q 1941 3994 1786 3844 
Q 1631 3694 1631 3419 
z
" transform="scale(0.015625)"/>
      <path id="DejaVuSans-Bold-1c" d="M 641 103 
L 641 966 
Q 928 831 1190 764 
Q 1453 697 1709 697 
Q 2247 697 2547 995 
Q 2847 1294 2900 1881 
Q 2688 1725 2447 1647 
Q 2206 1569 1925 1569 
Q 1209 1569 770 1986 
Q 331 2403 331 3084 
Q 331 3838 820 4291 
Q 1309 4744 2131 4744 
Q 3044 4744 3544 4128 
Q 4044 3513 4044 2388 
Q 4044 1231 3459 570 
Q 2875 -91 1856 -91 
Q 1528 -91 1228 -42 
Q 928 6 641 103 
z
M 2125 2350 
Q 2441 2350 2600 2554 
Q 2759 2759 2759 3169 
Q 2759 3575 2600 3781 
Q 2441 3988 2125 3988 
Q 1809 3988 1650 3781 
Q 1491 3575 1491 3169 
Q 1491 2759 1650 2554 
Q 1809 2350 2125 2350 
z
" transform="scale(0.015625)"/>
     </defs>
     <use xlink:href="#DejaVuSans-Bold-14"/>
     <use xlink:href="#DejaVuSans-Bold-13" transform="translate(69.578125 0)"/>
     <use xlink:href="#DejaVuSans-Bold-1b" transform="translate(139.15625 0)"/>
     <use xlink:href="#DejaVuSans-Bold-11" transform="translate(208.734375 0)"/>
     <use xlink:href="#DejaVuSans-Bold-1c" transform="translate(246.71875 0)"/>
    </g>
   </g>
   <g id="text_15">
    <!-- 132.3 -->
    <g style="fill: #ffffff" transform="translate(448.623976 133.674606) scale(0.14 -0.14)">
     <defs>
      <path id="DejaVuSans-Bold-16" d="M 2981 2516 
Q 3453 2394 3698 2092 
Q 3944 1791 3944 1325 
Q 3944 631 3412 270 
Q 2881 -91 1863 -91 
Q 1503 -91 1142 -33 
Q 781 25 428 141 
L 428 1069 
Q 766 900 1098 814 
Q 1431 728 1753 728 
Q 2231 728 2486 893 
Q 2741 1059 2741 1369 
Q 2741 1688 2480 1852 
Q 2219 2016 1709 2016 
L 1228 2016 
L 1228 2791 
L 1734 2791 
Q 2188 2791 2409 2933 
Q 2631 3075 2631 3366 
Q 2631 3634 2415 3781 
Q 2200 3928 1806 3928 
Q 1516 3928 1219 3862 
Q 922 3797 628 3669 
L 628 4550 
Q 984 4650 1334 4700 
Q 1684 4750 2022 4750 
Q 2931 4750 3382 4451 
Q 3834 4153 3834 3553 
Q 3834 3144 3618 2883 
Q 3403 2622 2981 2516 
z
" transform="scale(0.015625)"/>
      <path id="DejaVuSans-Bold-15" d="M 1844 884 
L 3897 884 
L 3897 0 
L 506 0 
L 506 884 
L 2209 2388 
Q 2438 2594 2547 2791 
Q 2656 2988 2656 3200 
Q 2656 3528 2436 3728 
Q 2216 3928 1850 3928 
Q 1569 3928 1234 3808 
Q 900 3688 519 3450 
L 519 4475 
Q 925 4609 1322 4679 
Q 1719 4750 2100 4750 
Q 2938 4750 3402 4381 
Q 3866 4013 3866 3353 
Q 3866 2972 3669 2642 
Q 3472 2313 2841 1759 
L 1844 884 
z
" transform="scale(0.015625)"/>
     </defs>
     <use xlink:href="#DejaVuSans-Bold-14"/>
     <use xlink:href="#DejaVuSans-Bold-16" transform="translate(69.578125 0)"/>
     <use xlink:href="#DejaVuSans-Bold-15" transform="translate(139.15625 0)"/>
     <use xlink:href="#DejaVuSans-Bold-11" transform="translate(208.734375 0)"/>
     <use xlink:href="#DejaVuSans-Bold-16" transform="translate(246.71875 0)"/>
    </g>
   </g>
   <g id="text_16">
    <!-- 133.2 -->
    <g style="fill: #ffffff" transform="translate(450.314901 184.05539) scale(0.14 -0.14)">
     <use xlink:href="#DejaVuSans-Bold-14"/>
     <use xlink:href="#DejaVuSans-Bold-16" transform="translate(69.578125 0)"/>
     <use xlink:href="#DejaVuSans-Bold-16" transform="translate(139.15625 0)"/>
     <use xlink:href="#DejaVuSans-Bold-11" transform="translate(208.734375 0)"/>
     <use xlink:href="#DejaVuSans-Bold-15" transform="translate(246.71875 0)"/>
    </g>
   </g>
   <g id="text_17">
    <!-- 146.9 -->
    <g style="fill: #ffffff" transform="translate(476.05454 234.436173) scale(0.14 -0.14)">
     <defs>
      <path id="DejaVuSans-Bold-17" d="M 2356 3675 
L 1038 1722 
L 2356 1722 
L 2356 3675 
z
M 2156 4666 
L 3494 4666 
L 3494 1722 
L 4159 1722 
L 4159 850 
L 3494 850 
L 3494 0 
L 2356 0 
L 2356 850 
L 288 850 
L 288 1881 
L 2156 4666 
z
" transform="scale(0.015625)"/>
      <path id="DejaVuSans-Bold-19" d="M 2316 2303 
Q 2000 2303 1842 2098 
Q 1684 1894 1684 1484 
Q 1684 1075 1842 870 
Q 2000 666 2316 666 
Q 2634 666 2792 870 
Q 2950 1075 2950 1484 
Q 2950 1894 2792 2098 
Q 2634 2303 2316 2303 
z
M 3803 4544 
L 3803 3681 
Q 3506 3822 3243 3889 
Q 2981 3956 2731 3956 
Q 2194 3956 1894 3657 
Q 1594 3359 1544 2772 
Q 1750 2925 1990 3001 
Q 2231 3078 2516 3078 
Q 3231 3078 3670 2659 
Q 4109 2241 4109 1563 
Q 4109 813 3618 361 
Q 3128 -91 2303 -91 
Q 1394 -91 895 523 
Q 397 1138 397 2266 
Q 397 3422 980 4083 
Q 1563 4744 2578 4744 
Q 2900 4744 3203 4694 
Q 3506 4644 3803 4544 
z
" transform="scale(0.015625)"/>
     </defs>
     <use xlink:href="#DejaVuSans-Bold-14"/>
     <use xlink:href="#DejaVuSans-Bold-17" transform="translate(69.578125 0)"/>
     <use xlink:href="#DejaVuSans-Bold-19" transform="translate(139.15625 0)"/>
     <use xlink:href="#DejaVuSans-Bold-11" transform="translate(208.734375 0)"/>
     <use xlink:href="#DejaVuSans-Bold-1c" transform="translate(246.71875 0)"/>
    </g>
   </g>
   <g id="text_18">
    <!-- 177.2 -->
    <g style="fill: #ffffff" transform="translate(532.982353 284.816956) scale(0.14 -0.14)">
     <defs>
      <path id="DejaVuSans-Bold-1a" d="M 428 4666 
L 3944 4666 
L 3944 3988 
L 2125 0 
L 953 0 
L 2675 3781 
L 428 3781 
L 428 4666 
z
" transform="scale(0.015625)"/>
     </defs>
     <use xlink:href="#DejaVuSans-Bold-14"/>
     <use xlink:href="#DejaVuSans-Bold-1a" transform="translate(69.578125 0)"/>
     <use xlink:href="#DejaVuSans-Bold-1a" transform="translate(139.15625 0)"/>
     <use xlink:href="#DejaVuSans-Bold-11" transform="translate(208.734375 0)"/>
     <use xlink:href="#DejaVuSans-Bold-15" transform="translate(246.71875 0)"/>
    </g>
   </g>
   <g id="text_19">
    <!-- 236.2 -->
    <g style="fill: #ffffff" transform="translate(643.831891 335.197739) scale(0.14 -0.14)">
     <use xlink:href="#DejaVuSans-Bold-15"/>
     <use xlink:href="#DejaVuSans-Bold-16" transform="translate(69.578125 0)"/>
     <use xlink:href="#DejaVuSans-Bold-19" transform="translate(139.15625 0)"/>
     <use xlink:href="#DejaVuSans-Bold-11" transform="translate(208.734375 0)"/>
     <use xlink:href="#DejaVuSans-Bold-15" transform="translate(246.71875 0)"/>
    </g>
   </g>
   <g id="text_20">
    <!-- Average Event Latency (Lower is Better) -->
    <g style="fill: #ffffff" transform="translate(191.1825 25.43625) scale(0.24 -0.24)">
     <defs>
      <path id="DejaVuSans-Bold-24" d="M 3419 850 
L 1538 850 
L 1241 0 
L 31 0 
L 1759 4666 
L 3194 4666 
L 4922 0 
L 3713 0 
L 3419 850 
z
M 1838 1716 
L 3116 1716 
L 2478 3572 
L 1838 1716 
z
" transform="scale(0.015625)"/>
      <path id="DejaVuSans-Bold-59" d="M 97 3500 
L 1216 3500 
L 2088 1081 
L 2956 3500 
L 4078 3500 
L 2700 0 
L 1472 0 
L 97 3500 
z
" transform="scale(0.015625)"/>
      <path id="DejaVuSans-Bold-4a" d="M 2919 594 
Q 2688 288 2409 144 
Q 2131 0 1766 0 
Q 1125 0 706 504 
Q 288 1009 288 1791 
Q 288 2575 706 3076 
Q 1125 3578 1766 3578 
Q 2131 3578 2409 3434 
Q 2688 3291 2919 2981 
L 2919 3500 
L 4044 3500 
L 4044 353 
Q 4044 -491 3511 -936 
Q 2978 -1381 1966 -1381 
Q 1638 -1381 1331 -1331 
Q 1025 -1281 716 -1178 
L 716 -306 
Q 1009 -475 1290 -558 
Q 1572 -641 1856 -641 
Q 2406 -641 2662 -400 
Q 2919 -159 2919 353 
L 2919 594 
z
M 2181 2772 
Q 1834 2772 1640 2515 
Q 1447 2259 1447 1791 
Q 1447 1309 1634 1061 
Q 1822 813 2181 813 
Q 2531 813 2725 1069 
Q 2919 1325 2919 1791 
Q 2919 2259 2725 2515 
Q 2531 2772 2181 2772 
z
" transform="scale(0.015625)"/>
      <path id="DejaVuSans-Bold-3" transform="scale(0.015625)"/>
      <path id="DejaVuSans-Bold-28" d="M 588 4666 
L 3834 4666 
L 3834 3756 
L 1791 3756 
L 1791 2888 
L 3713 2888 
L 3713 1978 
L 1791 1978 
L 1791 909 
L 3903 909 
L 3903 0 
L 588 0 
L 588 4666 
z
" transform="scale(0.015625)"/>
      <path id="DejaVuSans-Bold-2f" d="M 588 4666 
L 1791 4666 
L 1791 909 
L 3903 909 
L 3903 0 
L 588 0 
L 588 4666 
z
" transform="scale(0.015625)"/>
      <path id="DejaVuSans-Bold-b" d="M 2413 -844 
L 1484 -844 
Q 1006 -72 778 623 
Q 550 1319 550 2003 
Q 550 2688 779 3389 
Q 1009 4091 1484 4856 
L 2413 4856 
Q 2013 4116 1813 3408 
Q 1613 2700 1613 2009 
Q 1613 1319 1811 609 
Q 2009 -100 2413 -844 
z
" transform="scale(0.015625)"/>
      <path id="DejaVuSans-Bold-5a" d="M 225 3500 
L 1313 3500 
L 1900 1088 
L 2491 3500 
L 3425 3500 
L 4013 1113 
L 4603 3500 
L 5691 3500 
L 4769 0 
L 3547 0 
L 2956 2406 
L 2369 0 
L 1147 0 
L 225 3500 
z
" transform="scale(0.015625)"/>
      <path id="DejaVuSans-Bold-25" d="M 2456 2859 
Q 2741 2859 2887 2984 
Q 3034 3109 3034 3353 
Q 3034 3594 2887 3720 
Q 2741 3847 2456 3847 
L 1791 3847 
L 1791 2859 
L 2456 2859 
z
M 2497 819 
Q 2859 819 3042 972 
Q 3225 1125 3225 1434 
Q 3225 1738 3044 1889 
Q 2863 2041 2497 2041 
L 1791 2041 
L 1791 819 
L 2497 819 
z
M 3616 2497 
Q 4003 2384 4215 2081 
Q 4428 1778 4428 1338 
Q 4428 663 3972 331 
Q 3516 0 2584 0 
L 588 0 
L 588 4666 
L 2394 4666 
Q 3366 4666 3802 4372 
Q 4238 4078 4238 3431 
Q 4238 3091 4078 2852 
Q 3919 2613 3616 2497 
z
" transform="scale(0.015625)"/>
      <path id="DejaVuSans-Bold-c" d="M 513 -844 
Q 913 -100 1113 609 
Q 1313 1319 1313 2009 
Q 1313 2700 1113 3408 
Q 913 4116 513 4856 
L 1441 4856 
Q 1916 4091 2145 3389 
Q 2375 2688 2375 2003 
Q 2375 1319 2147 623 
Q 1919 -72 1441 -844 
L 513 -844 
z
" transform="scale(0.015625)"/>
     </defs>
     <use xlink:href="#DejaVuSans-Bold-24"/>
     <use xlink:href="#DejaVuSans-Bold-59" transform="translate(73.828125 0)"/>
     <use xlink:href="#DejaVuSans-Bold-48" transform="translate(139.015625 0)"/>
     <use xlink:href="#DejaVuSans-Bold-55" transform="translate(206.84375 0)"/>
     <use xlink:href="#DejaVuSans-Bold-44" transform="translate(256.15625 0)"/>
     <use xlink:href="#DejaVuSans-Bold-4a" transform="translate(323.640625 0)"/>
     <use xlink:href="#DejaVuSans-Bold-48" transform="translate(395.21875 0)"/>
     <use xlink:href="#DejaVuSans-Bold-3" transform="translate(463.046875 0)"/>
     <use xlink:href="#DejaVuSans-Bold-28" transform="translate(497.859375 0)"/>
     <use xlink:href="#DejaVuSans-Bold-59" transform="translate(566.171875 0)"/>
     <use xlink:href="#DejaVuSans-Bold-48" transform="translate(631.359375 0)"/>
     <use xlink:href="#DejaVuSans-Bold-51" transform="translate(699.1875 0)"/>
     <use xlink:href="#DejaVuSans-Bold-57" transform="translate(770.375 0)"/>
     <use xlink:href="#DejaVuSans-Bold-3" transform="translate(818.171875 0)"/>
     <use xlink:href="#DejaVuSans-Bold-2f" transform="translate(852.984375 0)"/>
     <use xlink:href="#DejaVuSans-Bold-44" transform="translate(916.703125 0)"/>
     <use xlink:href="#DejaVuSans-Bold-57" transform="translate(984.1875 0)"/>
     <use xlink:href="#DejaVuSans-Bold-48" transform="translate(1031.984375 0)"/>
     <use xlink:href="#DejaVuSans-Bold-51" transform="translate(1099.8125 0)"/>
     <use xlink:href="#DejaVuSans-Bold-46" transform="translate(1171 0)"/>
     <use xlink:href="#DejaVuSans-Bold-5c" transform="translate(1230.28125 0)"/>
     <use xlink:href="#DejaVuSans-Bold-3" transform="translate(1295.46875 0)"/>
     <use xlink:href="#DejaVuSans-Bold-b" transform="translate(1330.28125 0)"/>
     <use xlink:href="#DejaVuSans-Bold-2f" transform="translate(1375.984375 0)"/>
     <use xlink:href="#DejaVuSans-Bold-52" transform="translate(1439.703125 0)"/>
     <use xlink:href="#DejaVuSans-Bold-5a" transform="translate(1508.40625 0)"/>
     <use xlink:href="#DejaVuSans-Bold-48" transform="translate(1600.796875 0)"/>
     <use xlink:href="#DejaVuSans-Bold-55" transform="translate(1668.625 0)"/>
     <use xlink:href="#DejaVuSans-Bold-3" transform="translate(1717.9375 0)"/>
     <use xlink:href="#DejaVuSans-Bold-4c" transform="translate(1752.75 0)"/>
     <use xlink:href="#DejaVuSans-Bold-56" transform="translate(1787.03125 0)"/>
     <use xlink:href="#DejaVuSans-Bold-3" transform="translate(1846.546875 0)"/>
     <use xlink:href="#DejaVuSans-Bold-25" transform="translate(1881.359375 0)"/>
     <use xlink:href="#DejaVuSans-Bold-48" transform="translate(1957.578125 0)"/>
     <use xlink:href="#DejaVuSans-Bold-57" transform="translate(2025.40625 0)"/>
     <use xlink:href="#DejaVuSans-Bold-57" transform="translate(2073.203125 0)"/>
     <use xlink:href="#DejaVuSans-Bold-48" transform="translate(2121 0)"/>
     <use xlink:href="#DejaVuSans-Bold-55" transform="translate(2188.828125 0)"/>
     <use xlink:href="#DejaVuSans-Bold-c" transform="translate(2238.140625 0)"/>
    </g>
   </g>
  </g>
 </g>
 <defs>
  <clipPath id="p3801b7a59b">
   <rect x="191.1825" y="50.43625" width="510.34" height="310.345625"/>
  </clipPath>
 </defs>
</svg>
