<?xml version="1.0" encoding="utf-8" standalone="no"?>
<!DOCTYPE svg PUBLIC "-//W3C//DTD SVG 1.1//EN"
  "http://www.w3.org/Graphics/SVG/1.1/DTD/svg11.dtd">
<svg xmlns:xlink="http://www.w3.org/1999/xlink" width="694.210938pt" height="657.9472pt" viewBox="0 0 694.210938 657.9472" xmlns="http://www.w3.org/2000/svg" version="1.1">
 <metadata>
  <rdf:RDF xmlns:dc="http://purl.org/dc/elements/1.1/" xmlns:cc="http://creativecommons.org/ns#" xmlns:rdf="http://www.w3.org/1999/02/22-rdf-syntax-ns#">
   <cc:Work>
    <dc:type rdf:resource="http://purl.org/dc/dcmitype/StillImage"/>
    <dc:date>2026-07-25T14:26:29.603684</dc:date>
    <dc:format>image/svg+xml</dc:format>
    <dc:creator>
     <cc:Agent>
      <dc:title>Matplotlib v3.11.1, https://matplotlib.org/</dc:title>
     </cc:Agent>
    </dc:creator>
   </cc:Work>
  </rdf:RDF>
 </metadata>
 <defs>
  <style type="text/css">*{stroke-linejoin: round; stroke-linecap: butt}</style>
 </defs>
 <g id="figure_1">
  <g id="patch_1">
   <path d="M 0 657.9472 
L 694.210938 657.9472 
L 694.210938 0 
L 0 0 
z
" style="fill: #0d1117"/>
  </g>
  <g id="axes_1">
   <g id="patch_2">
    <path d="M 593.345469 326.16 
C 593.345469 293.824059 586.975994 261.802545 574.601565 231.928032 
C 562.227136 202.053518 544.088405 174.906989 521.223443 152.042026 
C 498.35848 129.177063 471.211951 111.038333 441.337437 98.663904 
C 411.462924 86.289475 379.441409 79.92 347.105469 79.92 
C 314.769528 79.92 282.748014 86.289475 252.8735 98.663904 
C 222.998987 111.038333 195.852458 129.177063 172.987495 152.042026 
C 150.122532 174.906989 131.983801 202.053518 119.609373 231.928032 
C 107.234944 261.802545 100.865469 293.824059 100.865469 326.16 
C 100.865469 358.495941 107.234944 390.517455 119.609373 420.391968 
C 131.983801 450.266482 150.122532 477.413011 172.987495 500.277974 
C 195.852458 523.142937 222.998987 541.281667 252.8735 553.656096 
C 282.748014 566.030525 314.769528 572.4 347.105469 572.4 
C 379.441409 572.4 411.462924 566.030525 441.337437 553.656096 
C 471.211951 541.281667 498.35848 523.142937 521.223443 500.277974 
C 544.088405 477.413011 562.227136 450.266482 574.601565 420.391968 
C 586.975994 390.517455 593.345469 358.495941 593.345469 326.16 
M 347.105469 326.16 
C 347.105469 326.16 347.105469 326.16 347.105469 326.16 
C 347.105469 326.16 347.105469 326.16 347.105469 326.16 
C 347.105469 326.16 347.105469 326.16 347.105469 326.16 
C 347.105469 326.16 347.105469 326.16 347.105469 326.16 
C 347.105469 326.16 347.105469 326.16 347.105469 326.16 
C 347.105469 326.16 347.105469 326.16 347.105469 326.16 
C 347.105469 326.16 347.105469 326.16 347.105469 326.16 
C 347.105469 326.16 347.105469 326.16 347.105469 326.16 
C 347.105469 326.16 347.105469 326.16 347.105469 326.16 
C 347.105469 326.16 347.105469 326.16 347.105469 326.16 
C 347.105469 326.16 347.105469 326.16 347.105469 326.16 
C 347.105469 326.16 347.105469 326.16 347.105469 326.16 
C 347.105469 326.16 347.105469 326.16 347.105469 326.16 
C 347.105469 326.16 347.105469 326.16 347.105469 326.16 
C 347.105469 326.16 347.105469 326.16 347.105469 326.16 
C 347.105469 326.16 347.105469 326.16 347.105469 326.16 
z
" style="fill: #0d1117"/>
   </g>
   <g id="patch_3">
    <path d="M 581.619754 326.16 
L 363.392125 297.950683 
L 270.61109 193.66785 
L 200.243547 326.16 
L 252.389449 490.212958 
L 400.709429 419.004783 
z
" clip-path="url(#p9072976d1e)" style="fill: #10b981; opacity: 0.12; stroke: #10b981; stroke-linejoin: miter"/>
   </g>
   <g id="patch_4">
    <path d="M 420.697724 326.16 
L 360.907885 302.253514 
L 303.389254 250.441295 
L 347.105469 326.16 
L 309.471727 391.343553 
L 362.840504 353.41388 
z
" clip-path="url(#p9072976d1e)" style="fill: #38bdf8; opacity: 0.12; stroke: #38bdf8; stroke-linejoin: miter"/>
   </g>
   <g id="patch_5">
    <path d="M 347.105469 326.16 
L 381.674 266.285547 
L 307.534015 257.620232 
L 347.105469 326.16 
L 302.81637 402.87097 
L 366.262804 359.341479 
z
" clip-path="url(#p9072976d1e)" style="fill: #f472b6; opacity: 0.12; stroke: #f472b6; stroke-linejoin: miter"/>
   </g>
   <g id="matplotlib.axis_1">
    <g id="xtick_1">
     <g id="line2d_1">
      <path d="M 347.105469 326.16 
L 593.345469 326.16 
" clip-path="url(#p9072976d1e)" style="fill: none; stroke: #1e293b; stroke-opacity: 0.6; stroke-width: 0.8; stroke-linecap: square"/>
     </g>
     <g id="text_1">
      <!-- zThread -->
      <g style="fill: #e2e8f0" transform="translate(580.116719 329.277656) scale(0.12 -0.12)">
       <defs>
        <path id="DejaVuSans-Bold-5d" d="M 366 3500 
L 3419 3500 
L 3419 2719 
L 1575 800 
L 3419 800 
L 3419 0 
L 288 0 
L 288 781 
L 2131 2700 
L 366 2700 
L 366 3500 
z
" transform="scale(0.015625)"/>
        <path id="DejaVuSans-Bold-37" d="M 31 4666 
L 4331 4666 
L 4331 3756 
L 2784 3756 
L 2784 0 
L 1581 0 
L 1581 3756 
L 31 3756 
L 31 4666 
z
" transform="scale(0.015625)"/>
        <path id="DejaVuSans-Bold-4b" d="M 4056 2131 
L 4056 0 
L 2931 0 
L 2931 347 
L 2931 1625 
Q 2931 2084 2911 2256 
Q 2891 2428 2841 2509 
Q 2775 2619 2662 2680 
Q 2550 2741 2406 2741 
Q 2056 2741 1856 2470 
Q 1656 2200 1656 1722 
L 1656 0 
L 538 0 
L 538 4863 
L 1656 4863 
L 1656 2988 
Q 1909 3294 2193 3439 
Q 2478 3584 2822 3584 
Q 3428 3584 3742 3212 
Q 4056 2841 4056 2131 
z
" transform="scale(0.015625)"/>
        <path id="DejaVuSans-Bold-55" d="M 3138 2547 
Q 2991 2616 2845 2648 
Q 2700 2681 2553 2681 
Q 2122 2681 1889 2404 
Q 1656 2128 1656 1613 
L 1656 0 
L 538 0 
L 538 3500 
L 1656 3500 
L 1656 2925 
Q 1872 3269 2151 3426 
Q 2431 3584 2822 3584 
Q 2878 3584 2943 3579 
Q 3009 3575 3134 3559 
L 3138 2547 
z
" transform="scale(0.015625)"/>
        <path id="DejaVuSans-Bold-48" d="M 4031 1759 
L 4031 1441 
L 1416 1441 
Q 1456 1047 1700 850 
Q 1944 653 2381 653 
Q 2734 653 3104 758 
Q 3475 863 3866 1075 
L 3866 213 
Q 3469 63 3072 -14 
Q 2675 -91 2278 -91 
Q 1328 -91 801 392 
Q 275 875 275 1747 
Q 275 2603 792 3093 
Q 1309 3584 2216 3584 
Q 3041 3584 3536 3087 
Q 4031 2591 4031 1759 
z
M 2881 2131 
Q 2881 2450 2695 2645 
Q 2509 2841 2209 2841 
Q 1884 2841 1681 2658 
Q 1478 2475 1428 2131 
L 2881 2131 
z
" transform="scale(0.015625)"/>
        <path id="DejaVuSans-Bold-44" d="M 2106 1575 
Q 1756 1575 1579 1456 
Q 1403 1338 1403 1106 
Q 1403 894 1545 773 
Q 1688 653 1941 653 
Q 2256 653 2472 879 
Q 2688 1106 2688 1447 
L 2688 1575 
L 2106 1575 
z
M 3816 1997 
L 3816 0 
L 2688 0 
L 2688 519 
Q 2463 200 2181 54 
Q 1900 -91 1497 -91 
Q 953 -91 614 226 
Q 275 544 275 1050 
Q 275 1666 698 1953 
Q 1122 2241 2028 2241 
L 2688 2241 
L 2688 2328 
Q 2688 2594 2478 2717 
Q 2269 2841 1825 2841 
Q 1466 2841 1156 2769 
Q 847 2697 581 2553 
L 581 3406 
Q 941 3494 1303 3539 
Q 1666 3584 2028 3584 
Q 2975 3584 3395 3211 
Q 3816 2838 3816 1997 
z
" transform="scale(0.015625)"/>
        <path id="DejaVuSans-Bold-47" d="M 2919 2988 
L 2919 4863 
L 4044 4863 
L 4044 0 
L 2919 0 
L 2919 506 
Q 2688 197 2409 53 
Q 2131 -91 1766 -91 
Q 1119 -91 703 423 
Q 288 938 288 1747 
Q 288 2556 703 3070 
Q 1119 3584 1766 3584 
Q 2128 3584 2408 3439 
Q 2688 3294 2919 2988 
z
M 2181 722 
Q 2541 722 2730 984 
Q 2919 1247 2919 1747 
Q 2919 2247 2730 2509 
Q 2541 2772 2181 2772 
Q 1825 2772 1636 2509 
Q 1447 2247 1447 1747 
Q 1447 1247 1636 984 
Q 1825 722 2181 722 
z
" transform="scale(0.015625)"/>
       </defs>
       <use xlink:href="#DejaVuSans-Bold-5d"/>
       <use xlink:href="#DejaVuSans-Bold-37" transform="translate(58.203125 0)"/>
       <use xlink:href="#DejaVuSans-Bold-4b" transform="translate(126.421875 0)"/>
       <use xlink:href="#DejaVuSans-Bold-55" transform="translate(197.609375 0)"/>
       <use xlink:href="#DejaVuSans-Bold-48" transform="translate(246.921875 0)"/>
       <use xlink:href="#DejaVuSans-Bold-44" transform="translate(314.75 0)"/>
       <use xlink:href="#DejaVuSans-Bold-47" transform="translate(382.234375 0)"/>
      </g>
     </g>
    </g>
    <g id="xtick_2">
     <g id="line2d_2">
      <path d="M 347.105469 326.16 
L 470.225469 112.909905 
" clip-path="url(#p9072976d1e)" style="fill: none; stroke: #1e293b; stroke-opacity: 0.6; stroke-width: 0.8; stroke-linecap: square"/>
     </g>
     <g id="text_2">
      <!-- SynchronousQueue -->
      <g style="fill: #e2e8f0" transform="translate(411.794531 103.903205) scale(0.12 -0.12)">
       <defs>
        <path id="DejaVuSans-Bold-36" d="M 3834 4519 
L 3834 3531 
Q 3450 3703 3084 3790 
Q 2719 3878 2394 3878 
Q 1963 3878 1756 3759 
Q 1550 3641 1550 3391 
Q 1550 3203 1689 3098 
Q 1828 2994 2194 2919 
L 2706 2816 
Q 3484 2659 3812 2340 
Q 4141 2022 4141 1434 
Q 4141 663 3683 286 
Q 3225 -91 2284 -91 
Q 1841 -91 1394 -6 
Q 947 78 500 244 
L 500 1259 
Q 947 1022 1364 901 
Q 1781 781 2169 781 
Q 2563 781 2772 912 
Q 2981 1044 2981 1288 
Q 2981 1506 2839 1625 
Q 2697 1744 2272 1838 
L 1806 1941 
Q 1106 2091 782 2419 
Q 459 2747 459 3303 
Q 459 4000 909 4375 
Q 1359 4750 2203 4750 
Q 2588 4750 2994 4692 
Q 3400 4634 3834 4519 
z
" transform="scale(0.015625)"/>
        <path id="DejaVuSans-Bold-5c" d="M 78 3500 
L 1197 3500 
L 2138 1125 
L 2938 3500 
L 4056 3500 
L 2584 -331 
Q 2363 -916 2067 -1148 
Q 1772 -1381 1288 -1381 
L 641 -1381 
L 641 -647 
L 991 -647 
Q 1275 -647 1404 -556 
Q 1534 -466 1606 -231 
L 1638 -134 
L 78 3500 
z
" transform="scale(0.015625)"/>
        <path id="DejaVuSans-Bold-51" d="M 4056 2131 
L 4056 0 
L 2931 0 
L 2931 347 
L 2931 1631 
Q 2931 2084 2911 2256 
Q 2891 2428 2841 2509 
Q 2775 2619 2662 2680 
Q 2550 2741 2406 2741 
Q 2056 2741 1856 2470 
Q 1656 2200 1656 1722 
L 1656 0 
L 538 0 
L 538 3500 
L 1656 3500 
L 1656 2988 
Q 1909 3294 2193 3439 
Q 2478 3584 2822 3584 
Q 3428 3584 3742 3212 
Q 4056 2841 4056 2131 
z
" transform="scale(0.015625)"/>
        <path id="DejaVuSans-Bold-46" d="M 3366 3391 
L 3366 2478 
Q 3138 2634 2908 2709 
Q 2678 2784 2431 2784 
Q 1963 2784 1702 2511 
Q 1441 2238 1441 1747 
Q 1441 1256 1702 982 
Q 1963 709 2431 709 
Q 2694 709 2930 787 
Q 3166 866 3366 1019 
L 3366 103 
Q 3103 6 2833 -42 
Q 2563 -91 2291 -91 
Q 1344 -91 809 395 
Q 275 881 275 1747 
Q 275 2613 809 3098 
Q 1344 3584 2291 3584 
Q 2566 3584 2833 3536 
Q 3100 3488 3366 3391 
z
" transform="scale(0.015625)"/>
        <path id="DejaVuSans-Bold-52" d="M 2203 2784 
Q 1831 2784 1636 2517 
Q 1441 2250 1441 1747 
Q 1441 1244 1636 976 
Q 1831 709 2203 709 
Q 2569 709 2762 976 
Q 2956 1244 2956 1747 
Q 2956 2250 2762 2517 
Q 2569 2784 2203 2784 
z
M 2203 3584 
Q 3106 3584 3614 3096 
Q 4122 2609 4122 1747 
Q 4122 884 3614 396 
Q 3106 -91 2203 -91 
Q 1297 -91 786 396 
Q 275 884 275 1747 
Q 275 2609 786 3096 
Q 1297 3584 2203 3584 
z
" transform="scale(0.015625)"/>
        <path id="DejaVuSans-Bold-58" d="M 500 1363 
L 500 3500 
L 1625 3500 
L 1625 3150 
Q 1625 2866 1622 2436 
Q 1619 2006 1619 1863 
Q 1619 1441 1641 1255 
Q 1663 1069 1716 984 
Q 1784 875 1895 815 
Q 2006 756 2150 756 
Q 2500 756 2700 1025 
Q 2900 1294 2900 1772 
L 2900 3500 
L 4019 3500 
L 4019 0 
L 2900 0 
L 2900 506 
Q 2647 200 2364 54 
Q 2081 -91 1741 -91 
Q 1134 -91 817 281 
Q 500 653 500 1363 
z
" transform="scale(0.015625)"/>
        <path id="DejaVuSans-Bold-56" d="M 3272 3391 
L 3272 2541 
Q 2913 2691 2578 2766 
Q 2244 2841 1947 2841 
Q 1628 2841 1473 2761 
Q 1319 2681 1319 2516 
Q 1319 2381 1436 2309 
Q 1553 2238 1856 2203 
L 2053 2175 
Q 2913 2066 3209 1816 
Q 3506 1566 3506 1031 
Q 3506 472 3093 190 
Q 2681 -91 1863 -91 
Q 1516 -91 1145 -36 
Q 775 19 384 128 
L 384 978 
Q 719 816 1070 734 
Q 1422 653 1784 653 
Q 2113 653 2278 743 
Q 2444 834 2444 1013 
Q 2444 1163 2330 1236 
Q 2216 1309 1875 1350 
L 1678 1375 
Q 931 1469 631 1722 
Q 331 1975 331 2491 
Q 331 3047 712 3315 
Q 1094 3584 1881 3584 
Q 2191 3584 2531 3537 
Q 2872 3491 3272 3391 
z
" transform="scale(0.015625)"/>
        <path id="DejaVuSans-Bold-34" d="M 2847 -84 
L 2753 -84 
Q 1600 -84 959 553 
Q 319 1191 319 2328 
Q 319 3463 958 4106 
Q 1597 4750 2719 4750 
Q 3853 4750 4486 4112 
Q 5119 3475 5119 2328 
Q 5119 1541 4783 972 
Q 4447 403 3816 116 
L 4756 -934 
L 3609 -934 
L 2847 -84 
z
M 2719 3878 
Q 2169 3878 1866 3472 
Q 1563 3066 1563 2328 
Q 1563 1578 1859 1179 
Q 2156 781 2719 781 
Q 3272 781 3575 1187 
Q 3878 1594 3878 2328 
Q 3878 3066 3575 3472 
Q 3272 3878 2719 3878 
z
" transform="scale(0.015625)"/>
       </defs>
       <use xlink:href="#DejaVuSans-Bold-36"/>
       <use xlink:href="#DejaVuSans-Bold-5c" transform="translate(72.015625 0)"/>
       <use xlink:href="#DejaVuSans-Bold-51" transform="translate(137.203125 0)"/>
       <use xlink:href="#DejaVuSans-Bold-46" transform="translate(208.390625 0)"/>
       <use xlink:href="#DejaVuSans-Bold-4b" transform="translate(267.671875 0)"/>
       <use xlink:href="#DejaVuSans-Bold-55" transform="translate(338.859375 0)"/>
       <use xlink:href="#DejaVuSans-Bold-52" transform="translate(388.171875 0)"/>
       <use xlink:href="#DejaVuSans-Bold-51" transform="translate(456.875 0)"/>
       <use xlink:href="#DejaVuSans-Bold-52" transform="translate(528.0625 0)"/>
       <use xlink:href="#DejaVuSans-Bold-58" transform="translate(596.765625 0)"/>
       <use xlink:href="#DejaVuSans-Bold-56" transform="translate(667.953125 0)"/>
       <use xlink:href="#DejaVuSans-Bold-34" transform="translate(727.46875 0)"/>
       <use xlink:href="#DejaVuSans-Bold-58" transform="translate(812.484375 0)"/>
       <use xlink:href="#DejaVuSans-Bold-48" transform="translate(883.671875 0)"/>
       <use xlink:href="#DejaVuSans-Bold-58" transform="translate(951.5 0)"/>
       <use xlink:href="#DejaVuSans-Bold-48" transform="translate(1022.6875 0)"/>
      </g>
     </g>
    </g>
    <g id="xtick_3">
     <g id="line2d_3">
      <path d="M 347.105469 326.16 
L 223.985469 112.909905 
" clip-path="url(#p9072976d1e)" style="fill: none; stroke: #1e293b; stroke-opacity: 0.6; stroke-width: 0.8; stroke-linecap: square"/>
     </g>
     <g id="text_3">
      <!-- Netty -->
      <g style="fill: #e2e8f0" transform="translate(198.247656 103.902736) scale(0.12 -0.12)">
       <defs>
        <path id="DejaVuSans-Bold-31" d="M 588 4666 
L 1931 4666 
L 3628 1466 
L 3628 4666 
L 4769 4666 
L 4769 0 
L 3425 0 
L 1728 3200 
L 1728 0 
L 588 0 
L 588 4666 
z
" transform="scale(0.015625)"/>
        <path id="DejaVuSans-Bold-57" d="M 1759 4494 
L 1759 3500 
L 2913 3500 
L 2913 2700 
L 1759 2700 
L 1759 1216 
Q 1759 972 1856 886 
Q 1953 800 2241 800 
L 2816 800 
L 2816 0 
L 1856 0 
Q 1194 0 917 276 
Q 641 553 641 1216 
L 641 2700 
L 84 2700 
L 84 3500 
L 641 3500 
L 641 4494 
L 1759 4494 
z
" transform="scale(0.015625)"/>
       </defs>
       <use xlink:href="#DejaVuSans-Bold-31"/>
       <use xlink:href="#DejaVuSans-Bold-48" transform="translate(83.6875 0)"/>
       <use xlink:href="#DejaVuSans-Bold-57" transform="translate(151.515625 0)"/>
       <use xlink:href="#DejaVuSans-Bold-57" transform="translate(199.3125 0)"/>
       <use xlink:href="#DejaVuSans-Bold-5c" transform="translate(247.109375 0)"/>
      </g>
     </g>
    </g>
    <g id="xtick_4">
     <g id="line2d_4">
      <path d="M 347.105469 326.16 
L 100.865469 326.16 
" clip-path="url(#p9072976d1e)" style="fill: none; stroke: #1e293b; stroke-opacity: 0.6; stroke-width: 0.8; stroke-linecap: square"/>
     </g>
     <g id="text_4">
      <!-- Vert.x -->
      <g style="fill: #e2e8f0" transform="translate(66.504844 329.277187) scale(0.12 -0.12)">
       <defs>
        <path id="DejaVuSans-Bold-39" d="M 31 4666 
L 1241 4666 
L 2478 1222 
L 3713 4666 
L 4922 4666 
L 3194 0 
L 1759 0 
L 31 4666 
z
" transform="scale(0.015625)"/>
        <path id="DejaVuSans-Bold-11" d="M 653 1209 
L 1778 1209 
L 1778 0 
L 653 0 
L 653 1209 
z
" transform="scale(0.015625)"/>
        <path id="DejaVuSans-Bold-5b" d="M 1422 1791 
L 159 3500 
L 1344 3500 
L 2059 2463 
L 2784 3500 
L 3969 3500 
L 2706 1797 
L 4031 0 
L 2847 0 
L 2059 1106 
L 1281 0 
L 97 0 
L 1422 1791 
z
" transform="scale(0.015625)"/>
       </defs>
       <use xlink:href="#DejaVuSans-Bold-39"/>
       <use xlink:href="#DejaVuSans-Bold-48" transform="translate(71.921875 0)"/>
       <use xlink:href="#DejaVuSans-Bold-55" transform="translate(139.75 0)"/>
       <use xlink:href="#DejaVuSans-Bold-57" transform="translate(189.0625 0)"/>
       <use xlink:href="#DejaVuSans-Bold-11" transform="translate(236.859375 0)"/>
       <use xlink:href="#DejaVuSans-Bold-5b" transform="translate(274.84375 0)"/>
      </g>
     </g>
    </g>
    <g id="xtick_5">
     <g id="line2d_5">
      <path d="M 347.105469 326.16 
L 223.985469 539.410095 
" clip-path="url(#p9072976d1e)" style="fill: none; stroke: #1e293b; stroke-opacity: 0.6; stroke-width: 0.8; stroke-linecap: square"/>
     </g>
     <g id="text_5">
      <!-- Reactor -->
      <g style="fill: #e2e8f0" transform="translate(190.741094 554.651639) scale(0.12 -0.12)">
       <defs>
        <path id="DejaVuSans-Bold-35" d="M 2297 2597 
Q 2675 2597 2839 2737 
Q 3003 2878 3003 3200 
Q 3003 3519 2839 3656 
Q 2675 3794 2297 3794 
L 1791 3794 
L 1791 2597 
L 2297 2597 
z
M 1791 1766 
L 1791 0 
L 588 0 
L 588 4666 
L 2425 4666 
Q 3347 4666 3776 4356 
Q 4206 4047 4206 3378 
Q 4206 2916 3982 2619 
Q 3759 2322 3309 2181 
Q 3556 2125 3751 1926 
Q 3947 1728 4147 1325 
L 4800 0 
L 3519 0 
L 2950 1159 
Q 2778 1509 2601 1637 
Q 2425 1766 2131 1766 
L 1791 1766 
z
" transform="scale(0.015625)"/>
       </defs>
       <use xlink:href="#DejaVuSans-Bold-35"/>
       <use xlink:href="#DejaVuSans-Bold-48" transform="translate(77 0)"/>
       <use xlink:href="#DejaVuSans-Bold-44" transform="translate(144.828125 0)"/>
       <use xlink:href="#DejaVuSans-Bold-46" transform="translate(212.3125 0)"/>
       <use xlink:href="#DejaVuSans-Bold-57" transform="translate(271.59375 0)"/>
       <use xlink:href="#DejaVuSans-Bold-52" transform="translate(319.390625 0)"/>
       <use xlink:href="#DejaVuSans-Bold-55" transform="translate(388.09375 0)"/>
      </g>
     </g>
    </g>
    <g id="xtick_6">
     <g id="line2d_6">
      <path d="M 347.105469 326.16 
L 470.225469 539.410095 
" clip-path="url(#p9072976d1e)" style="fill: none; stroke: #1e293b; stroke-opacity: 0.6; stroke-width: 0.8; stroke-linecap: square"/>
     </g>
     <g id="text_6">
      <!-- Virtual Threads -->
      <g style="fill: #e2e8f0" transform="translate(425.030156 554.652107) scale(0.12 -0.12)">
       <defs>
        <path id="DejaVuSans-Bold-4c" d="M 538 3500 
L 1656 3500 
L 1656 0 
L 538 0 
L 538 3500 
z
M 538 4863 
L 1656 4863 
L 1656 3950 
L 538 3950 
L 538 4863 
z
" transform="scale(0.015625)"/>
        <path id="DejaVuSans-Bold-4f" d="M 538 4863 
L 1656 4863 
L 1656 0 
L 538 0 
L 538 4863 
z
" transform="scale(0.015625)"/>
        <path id="DejaVuSans-Bold-3" transform="scale(0.015625)"/>
       </defs>
       <use xlink:href="#DejaVuSans-Bold-39"/>
       <use xlink:href="#DejaVuSans-Bold-4c" transform="translate(75.640625 0)"/>
       <use xlink:href="#DejaVuSans-Bold-55" transform="translate(109.921875 0)"/>
       <use xlink:href="#DejaVuSans-Bold-57" transform="translate(159.234375 0)"/>
       <use xlink:href="#DejaVuSans-Bold-58" transform="translate(207.03125 0)"/>
       <use xlink:href="#DejaVuSans-Bold-44" transform="translate(278.21875 0)"/>
       <use xlink:href="#DejaVuSans-Bold-4f" transform="translate(345.703125 0)"/>
       <use xlink:href="#DejaVuSans-Bold-3" transform="translate(379.984375 0)"/>
       <use xlink:href="#DejaVuSans-Bold-37" transform="translate(414.796875 0)"/>
       <use xlink:href="#DejaVuSans-Bold-4b" transform="translate(483.015625 0)"/>
       <use xlink:href="#DejaVuSans-Bold-55" transform="translate(554.203125 0)"/>
       <use xlink:href="#DejaVuSans-Bold-48" transform="translate(603.515625 0)"/>
       <use xlink:href="#DejaVuSans-Bold-44" transform="translate(671.34375 0)"/>
       <use xlink:href="#DejaVuSans-Bold-47" transform="translate(738.828125 0)"/>
       <use xlink:href="#DejaVuSans-Bold-56" transform="translate(810.40625 0)"/>
      </g>
     </g>
    </g>
   </g>
   <g id="matplotlib.axis_2">
    <g id="ytick_1">
     <g id="line2d_7">
      <path d="M 394.008326 326.16 
C 394.008326 320.000773 392.795093 313.901437 390.438058 308.211054 
C 388.081024 302.52067 384.626028 297.349903 380.270797 292.994672 
C 375.915566 288.639441 370.744799 285.184444 365.054415 282.82741 
C 359.364032 280.470376 353.264696 279.257143 347.105469 279.257143 
C 340.946242 279.257143 334.846906 280.470376 329.156522 282.82741 
C 323.466139 285.184444 318.295371 288.639441 313.94014 292.994672 
C 309.584909 297.349903 306.129913 302.52067 303.772879 308.211054 
C 301.415845 313.901437 300.202612 320.000773 300.202612 326.16 
C 300.202612 332.319227 301.415845 338.418563 303.772879 344.108946 
C 306.129913 349.79933 309.584909 354.970097 313.94014 359.325328 
C 318.295371 363.680559 323.466139 367.135556 329.156522 369.49259 
C 334.846906 371.849624 340.946242 373.062857 347.105469 373.062857 
C 353.264696 373.062857 359.364032 371.849624 365.054415 369.49259 
C 370.744799 367.135556 375.915566 363.680559 380.270797 359.325328 
C 384.626028 354.970097 388.081024 349.79933 390.438058 344.108946 
C 392.795093 338.418563 394.008326 332.319227 394.008326 326.16 
" clip-path="url(#p9072976d1e)" style="fill: none; stroke: #1e293b; stroke-opacity: 0.6; stroke-width: 0.8; stroke-linecap: square"/>
     </g>
     <g id="text_7">
      <!-- 2M -->
      <g style="fill: #94a3b8" transform="translate(387.724535 300.546462) scale(0.09 -0.09)">
       <defs>
        <path id="DejaVuSans-15" d="M 1228 531 
L 3431 531 
L 3431 0 
L 469 0 
L 469 531 
Q 828 903 1448 1529 
Q 2069 2156 2228 2338 
Q 2531 2678 2651 2914 
Q 2772 3150 2772 3378 
Q 2772 3750 2511 3984 
Q 2250 4219 1831 4219 
Q 1534 4219 1204 4116 
Q 875 4013 500 3803 
L 500 4441 
Q 881 4594 1212 4672 
Q 1544 4750 1819 4750 
Q 2544 4750 2975 4387 
Q 3406 4025 3406 3419 
Q 3406 3131 3298 2873 
Q 3191 2616 2906 2266 
Q 2828 2175 2409 1742 
Q 1991 1309 1228 531 
z
" transform="scale(0.015625)"/>
        <path id="DejaVuSans-30" d="M 628 4666 
L 1569 4666 
L 2759 1491 
L 3956 4666 
L 4897 4666 
L 4897 0 
L 4281 0 
L 4281 4097 
L 3078 897 
L 2444 897 
L 1241 4097 
L 1241 0 
L 628 0 
L 628 4666 
z
" transform="scale(0.015625)"/>
       </defs>
       <use xlink:href="#DejaVuSans-15"/>
       <use xlink:href="#DejaVuSans-30" transform="translate(63.625 0)"/>
      </g>
     </g>
    </g>
    <g id="ytick_2">
     <g id="line2d_8">
      <path d="M 440.911183 326.16 
C 440.911183 313.841546 438.484716 301.642874 433.770648 290.262107 
C 429.05658 278.88134 422.146587 268.539805 413.436125 259.829343 
C 404.725663 251.118881 394.384129 244.208889 383.003361 239.494821 
C 371.622594 234.780752 359.423922 232.354286 347.105469 232.354286 
C 334.787015 232.354286 322.588343 234.780752 311.207576 239.494821 
C 299.826809 244.208889 289.485274 251.118881 280.774812 259.829343 
C 272.06435 268.539805 265.154357 278.88134 260.440289 290.262107 
C 255.726221 301.642874 253.299754 313.841546 253.299754 326.16 
C 253.299754 338.478454 255.726221 350.677126 260.440289 362.057893 
C 265.154357 373.43866 272.06435 383.780195 280.774812 392.490657 
C 289.485274 401.201119 299.826809 408.111111 311.207576 412.825179 
C 322.588343 417.539248 334.787015 419.965714 347.105469 419.965714 
C 359.423922 419.965714 371.622594 417.539248 383.003361 412.825179 
C 394.384129 408.111111 404.725663 401.201119 413.436125 392.490657 
C 422.146587 383.780195 429.05658 373.43866 433.770648 362.057893 
C 438.484716 350.677126 440.911183 338.478454 440.911183 326.16 
" clip-path="url(#p9072976d1e)" style="fill: none; stroke: #1e293b; stroke-opacity: 0.6; stroke-width: 0.8; stroke-linecap: square"/>
     </g>
     <g id="text_8">
      <!-- 4M -->
      <g style="fill: #94a3b8" transform="translate(428.3436 277.095033) scale(0.09 -0.09)">
       <defs>
        <path id="DejaVuSans-17" d="M 2419 4116 
L 825 1625 
L 2419 1625 
L 2419 4116 
z
M 2253 4666 
L 3047 4666 
L 3047 1625 
L 3713 1625 
L 3713 1100 
L 3047 1100 
L 3047 0 
L 2419 0 
L 2419 1100 
L 313 1100 
L 313 1709 
L 2253 4666 
z
" transform="scale(0.015625)"/>
       </defs>
       <use xlink:href="#DejaVuSans-17"/>
       <use xlink:href="#DejaVuSans-30" transform="translate(63.625 0)"/>
      </g>
     </g>
    </g>
    <g id="ytick_3">
     <g id="line2d_9">
      <path d="M 487.81404 326.16 
C 487.81404 307.68232 484.17434 289.384312 477.103238 272.313161 
C 470.032136 255.24201 459.667147 239.729708 446.601454 226.664015 
C 433.535761 213.598322 418.023458 203.233333 400.952308 196.162231 
C 383.881157 189.091129 365.583149 185.451429 347.105469 185.451429 
C 328.627788 185.451429 310.32978 189.091129 293.25863 196.162231 
C 276.187479 203.233333 260.675177 213.598322 247.609484 226.664015 
C 234.543791 239.729708 224.178802 255.24201 217.1077 272.313161 
C 210.036597 289.384312 206.396897 307.68232 206.396897 326.16 
C 206.396897 344.63768 210.036597 362.935688 217.1077 380.006839 
C 224.178802 397.07799 234.543791 412.590292 247.609484 425.655985 
C 260.675177 438.721678 276.187479 449.086667 293.25863 456.157769 
C 310.32978 463.228871 328.627788 466.868571 347.105469 466.868571 
C 365.583149 466.868571 383.881157 463.228871 400.952308 456.157769 
C 418.023458 449.086667 433.535761 438.721678 446.601454 425.655985 
C 459.667147 412.590292 470.032136 397.07799 477.103238 380.006839 
C 484.17434 362.935688 487.81404 344.63768 487.81404 326.16 
" clip-path="url(#p9072976d1e)" style="fill: none; stroke: #1e293b; stroke-opacity: 0.6; stroke-width: 0.8; stroke-linecap: square"/>
     </g>
     <g id="text_9">
      <!-- 6M -->
      <g style="fill: #94a3b8" transform="translate(468.962666 253.643605) scale(0.09 -0.09)">
       <defs>
        <path id="DejaVuSans-19" d="M 2113 2584 
Q 1688 2584 1439 2293 
Q 1191 2003 1191 1497 
Q 1191 994 1439 701 
Q 1688 409 2113 409 
Q 2538 409 2786 701 
Q 3034 994 3034 1497 
Q 3034 2003 2786 2293 
Q 2538 2584 2113 2584 
z
M 3366 4563 
L 3366 3988 
Q 3128 4100 2886 4159 
Q 2644 4219 2406 4219 
Q 1781 4219 1451 3797 
Q 1122 3375 1075 2522 
Q 1259 2794 1537 2939 
Q 1816 3084 2150 3084 
Q 2853 3084 3261 2657 
Q 3669 2231 3669 1497 
Q 3669 778 3244 343 
Q 2819 -91 2113 -91 
Q 1303 -91 875 529 
Q 447 1150 447 2328 
Q 447 3434 972 4092 
Q 1497 4750 2381 4750 
Q 2619 4750 2861 4703 
Q 3103 4656 3366 4563 
z
" transform="scale(0.015625)"/>
       </defs>
       <use xlink:href="#DejaVuSans-19"/>
       <use xlink:href="#DejaVuSans-30" transform="translate(63.625 0)"/>
      </g>
     </g>
    </g>
    <g id="ytick_4">
     <g id="line2d_10">
      <path d="M 534.716897 326.16 
C 534.716897 301.523093 529.863964 277.125749 520.435828 254.364215 
C 511.007692 231.60268 497.187706 210.919611 479.766782 193.498687 
C 462.345858 176.077763 441.662788 162.257777 418.901254 152.829641 
C 396.13972 143.401505 371.742376 138.548571 347.105469 138.548571 
C 322.468562 138.548571 298.071217 143.401505 275.309683 152.829641 
C 252.548149 162.257777 231.865079 176.077763 214.444155 193.498687 
C 197.023231 210.919611 183.203246 231.60268 173.77511 254.364215 
C 164.346974 277.125749 159.49404 301.523093 159.49404 326.16 
C 159.49404 350.796907 164.346974 375.194251 173.77511 397.955785 
C 183.203246 420.71732 197.023231 441.400389 214.444155 458.821313 
C 231.865079 476.242237 252.548149 490.062223 275.309683 499.490359 
C 298.071217 508.918495 322.468562 513.771429 347.105469 513.771429 
C 371.742376 513.771429 396.13972 508.918495 418.901254 499.490359 
C 441.662788 490.062223 462.345858 476.242237 479.766782 458.821313 
C 497.187706 441.400389 511.007692 420.71732 520.435828 397.955785 
C 529.863964 375.194251 534.716897 350.796907 534.716897 326.16 
" clip-path="url(#p9072976d1e)" style="fill: none; stroke: #1e293b; stroke-opacity: 0.6; stroke-width: 0.8; stroke-linecap: square"/>
     </g>
     <g id="text_10">
      <!-- 8M -->
      <g style="fill: #94a3b8" transform="translate(509.581732 230.192176) scale(0.09 -0.09)">
       <defs>
        <path id="DejaVuSans-1b" d="M 2034 2216 
Q 1584 2216 1326 1975 
Q 1069 1734 1069 1313 
Q 1069 891 1326 650 
Q 1584 409 2034 409 
Q 2484 409 2743 651 
Q 3003 894 3003 1313 
Q 3003 1734 2745 1975 
Q 2488 2216 2034 2216 
z
M 1403 2484 
Q 997 2584 770 2862 
Q 544 3141 544 3541 
Q 544 4100 942 4425 
Q 1341 4750 2034 4750 
Q 2731 4750 3128 4425 
Q 3525 4100 3525 3541 
Q 3525 3141 3298 2862 
Q 3072 2584 2669 2484 
Q 3125 2378 3379 2068 
Q 3634 1759 3634 1313 
Q 3634 634 3220 271 
Q 2806 -91 2034 -91 
Q 1263 -91 848 271 
Q 434 634 434 1313 
Q 434 1759 690 2068 
Q 947 2378 1403 2484 
z
M 1172 3481 
Q 1172 3119 1398 2916 
Q 1625 2713 2034 2713 
Q 2441 2713 2670 2916 
Q 2900 3119 2900 3481 
Q 2900 3844 2670 4047 
Q 2441 4250 2034 4250 
Q 1625 4250 1398 4047 
Q 1172 3844 1172 3481 
z
" transform="scale(0.015625)"/>
       </defs>
       <use xlink:href="#DejaVuSans-1b"/>
       <use xlink:href="#DejaVuSans-30" transform="translate(63.625 0)"/>
      </g>
     </g>
    </g>
    <g id="ytick_5">
     <g id="line2d_11">
      <path d="M 581.619754 326.16 
C 581.619754 295.363866 575.553588 264.867186 563.768417 236.415268 
C 551.983247 207.96335 534.708266 182.109513 512.93211 160.333358 
C 491.155955 138.557203 465.302118 121.282222 436.850201 109.497051 
C 408.398283 97.711881 377.901603 91.645714 347.105469 91.645714 
C 316.309335 91.645714 285.812655 97.711881 257.360737 109.497051 
C 228.908819 121.282222 203.054982 138.557203 181.278827 160.333358 
C 159.502672 182.109513 142.22769 207.96335 130.44252 236.415268 
C 118.65735 264.867186 112.591183 295.363866 112.591183 326.16 
C 112.591183 356.956134 118.65735 387.452814 130.44252 415.904732 
C 142.22769 444.35665 159.502672 470.210487 181.278827 491.986642 
C 203.054982 513.762797 228.908819 531.037778 257.360737 542.822949 
C 285.812655 554.608119 316.309335 560.674286 347.105469 560.674286 
C 377.901603 560.674286 408.398283 554.608119 436.850201 542.822949 
C 465.302118 531.037778 491.155955 513.762797 512.93211 491.986642 
C 534.708266 470.210487 551.983247 444.35665 563.768417 415.904732 
C 575.553588 387.452814 581.619754 356.956134 581.619754 326.16 
" clip-path="url(#p9072976d1e)" style="fill: none; stroke: #1e293b; stroke-opacity: 0.6; stroke-width: 0.8; stroke-linecap: square"/>
     </g>
     <g id="text_11">
      <!-- 10M -->
      <g style="fill: #94a3b8" transform="translate(550.200798 206.740748) scale(0.09 -0.09)">
       <defs>
        <path id="DejaVuSans-14" d="M 794 531 
L 1825 531 
L 1825 4091 
L 703 3866 
L 703 4441 
L 1819 4666 
L 2450 4666 
L 2450 531 
L 3481 531 
L 3481 0 
L 794 0 
L 794 531 
z
" transform="scale(0.015625)"/>
        <path id="DejaVuSans-13" d="M 2034 4250 
Q 1547 4250 1301 3770 
Q 1056 3291 1056 2328 
Q 1056 1369 1301 889 
Q 1547 409 2034 409 
Q 2525 409 2770 889 
Q 3016 1369 3016 2328 
Q 3016 3291 2770 3770 
Q 2525 4250 2034 4250 
z
M 2034 4750 
Q 2819 4750 3233 4129 
Q 3647 3509 3647 2328 
Q 3647 1150 3233 529 
Q 2819 -91 2034 -91 
Q 1250 -91 836 529 
Q 422 1150 422 2328 
Q 422 3509 836 4129 
Q 1250 4750 2034 4750 
z
" transform="scale(0.015625)"/>
       </defs>
       <use xlink:href="#DejaVuSans-14"/>
       <use xlink:href="#DejaVuSans-13" transform="translate(63.625 0)"/>
       <use xlink:href="#DejaVuSans-30" transform="translate(127.25 0)"/>
      </g>
     </g>
    </g>
   </g>
   <g id="line2d_12">
    <path d="M 581.619754 326.16 
L 363.392125 297.950683 
L 270.61109 193.66785 
L 200.243547 326.16 
L 252.389449 490.212958 
L 400.709429 419.004783 
L 581.619754 326.16 
" clip-path="url(#p9072976d1e)" style="fill: none; stroke: #10b981; stroke-width: 2.2; stroke-linecap: square"/>
    <defs>
     <path id="mbc962f62eb" d="M 0 3 
C 0.795609 3 1.55874 2.683901 2.12132 2.12132 
C 2.683901 1.55874 3 0.795609 3 0 
C 3 -0.795609 2.683901 -1.55874 2.12132 -2.12132 
C 1.55874 -2.683901 0.795609 -3 0 -3 
C -0.795609 -3 -1.55874 -2.683901 -2.12132 -2.12132 
C -2.683901 -1.55874 -3 -0.795609 -3 0 
C -3 0.795609 -2.683901 1.55874 -2.12132 2.12132 
C -1.55874 2.683901 -0.795609 3 0 3 
z
" style="stroke: #10b981"/>
    </defs>
    <g clip-path="url(#p9072976d1e)">
     <use xlink:href="#mbc962f62eb" x="581.619754" y="326.16" style="fill: #10b981; stroke: #10b981"/>
     <use xlink:href="#mbc962f62eb" x="363.392125" y="297.950683" style="fill: #10b981; stroke: #10b981"/>
     <use xlink:href="#mbc962f62eb" x="270.61109" y="193.66785" style="fill: #10b981; stroke: #10b981"/>
     <use xlink:href="#mbc962f62eb" x="200.243547" y="326.16" style="fill: #10b981; stroke: #10b981"/>
     <use xlink:href="#mbc962f62eb" x="252.389449" y="490.212958" style="fill: #10b981; stroke: #10b981"/>
     <use xlink:href="#mbc962f62eb" x="400.709429" y="419.004783" style="fill: #10b981; stroke: #10b981"/>
     <use xlink:href="#mbc962f62eb" x="581.619754" y="326.16" style="fill: #10b981; stroke: #10b981"/>
    </g>
   </g>
   <g id="line2d_13">
    <path d="M 420.697724 326.16 
L 360.907885 302.253514 
L 303.389254 250.441295 
L 347.105469 326.16 
L 309.471727 391.343553 
L 362.840504 353.41388 
L 420.697724 326.16 
" clip-path="url(#p9072976d1e)" style="fill: none; stroke: #38bdf8; stroke-width: 2.2; stroke-linecap: square"/>
    <defs>
     <path id="m83f19402c8" d="M 0 3 
C 0.795609 3 1.55874 2.683901 2.12132 2.12132 
C 2.683901 1.55874 3 0.795609 3 0 
C 3 -0.795609 2.683901 -1.55874 2.12132 -2.12132 
C 1.55874 -2.683901 0.795609 -3 0 -3 
C -0.795609 -3 -1.55874 -2.683901 -2.12132 -2.12132 
C -2.683901 -1.55874 -3 -0.795609 -3 0 
C -3 0.795609 -2.683901 1.55874 -2.12132 2.12132 
C -1.55874 2.683901 -0.795609 3 0 3 
z
" style="stroke: #38bdf8"/>
    </defs>
    <g clip-path="url(#p9072976d1e)">
     <use xlink:href="#m83f19402c8" x="420.697724" y="326.16" style="fill: #38bdf8; stroke: #38bdf8"/>
     <use xlink:href="#m83f19402c8" x="360.907885" y="302.253514" style="fill: #38bdf8; stroke: #38bdf8"/>
     <use xlink:href="#m83f19402c8" x="303.389254" y="250.441295" style="fill: #38bdf8; stroke: #38bdf8"/>
     <use xlink:href="#m83f19402c8" x="347.105469" y="326.16" style="fill: #38bdf8; stroke: #38bdf8"/>
     <use xlink:href="#m83f19402c8" x="309.471727" y="391.343553" style="fill: #38bdf8; stroke: #38bdf8"/>
     <use xlink:href="#m83f19402c8" x="362.840504" y="353.41388" style="fill: #38bdf8; stroke: #38bdf8"/>
     <use xlink:href="#m83f19402c8" x="420.697724" y="326.16" style="fill: #38bdf8; stroke: #38bdf8"/>
    </g>
   </g>
   <g id="line2d_14">
    <path d="M 347.105469 326.16 
L 381.674 266.285547 
L 307.534015 257.620232 
L 347.105469 326.16 
L 302.81637 402.87097 
L 366.262804 359.341479 
L 347.105469 326.16 
" clip-path="url(#p9072976d1e)" style="fill: none; stroke: #f472b6; stroke-width: 2.2; stroke-linecap: square"/>
    <defs>
     <path id="m1a0765a743" d="M 0 3 
C 0.795609 3 1.55874 2.683901 2.12132 2.12132 
C 2.683901 1.55874 3 0.795609 3 0 
C 3 -0.795609 2.683901 -1.55874 2.12132 -2.12132 
C 1.55874 -2.683901 0.795609 -3 0 -3 
C -0.795609 -3 -1.55874 -2.683901 -2.12132 -2.12132 
C -2.683901 -1.55874 -3 -0.795609 -3 0 
C -3 0.795609 -2.683901 1.55874 -2.12132 2.12132 
C -1.55874 2.683901 -0.795609 3 0 3 
z
" style="stroke: #f472b6"/>
    </defs>
    <g clip-path="url(#p9072976d1e)">
     <use xlink:href="#m1a0765a743" x="347.105469" y="326.16" style="fill: #f472b6; stroke: #f472b6"/>
     <use xlink:href="#m1a0765a743" x="381.674" y="266.285547" style="fill: #f472b6; stroke: #f472b6"/>
     <use xlink:href="#m1a0765a743" x="307.534015" y="257.620232" style="fill: #f472b6; stroke: #f472b6"/>
     <use xlink:href="#m1a0765a743" x="347.105469" y="326.16" style="fill: #f472b6; stroke: #f472b6"/>
     <use xlink:href="#m1a0765a743" x="302.81637" y="402.87097" style="fill: #f472b6; stroke: #f472b6"/>
     <use xlink:href="#m1a0765a743" x="366.262804" y="359.341479" style="fill: #f472b6; stroke: #f472b6"/>
     <use xlink:href="#m1a0765a743" x="347.105469" y="326.16" style="fill: #f472b6; stroke: #f472b6"/>
    </g>
   </g>
   <g id="patch_6">
    <path d="M 593.345469 326.16 
C 593.345469 293.824059 586.975994 261.802545 574.601565 231.928032 
C 562.227136 202.053518 544.088405 174.906989 521.223443 152.042026 
C 498.35848 129.177063 471.211951 111.038333 441.337437 98.663904 
C 411.462924 86.289475 379.441409 79.92 347.105469 79.92 
C 314.769528 79.92 282.748014 86.289475 252.8735 98.663904 
C 222.998987 111.038333 195.852458 129.177063 172.987495 152.042026 
C 150.122532 174.906989 131.983801 202.053518 119.609373 231.928032 
C 107.234944 261.802545 100.865469 293.824059 100.865469 326.16 
C 100.865469 358.495941 107.234944 390.517455 119.609373 420.391968 
C 131.983801 450.266482 150.122532 477.413011 172.987495 500.277974 
C 195.852458 523.142937 222.998987 541.281667 252.8735 553.656096 
C 282.748014 566.030525 314.769528 572.4 347.105469 572.4 
C 379.441409 572.4 411.462924 566.030525 441.337437 553.656096 
C 471.211951 541.281667 498.35848 523.142937 521.223443 500.277974 
C 544.088405 477.413011 562.227136 450.266482 574.601565 420.391968 
C 586.975994 390.517455 593.345469 358.495941 593.345469 326.16 
" style="fill: none; stroke: #1e293b; stroke-width: 0.8; stroke-linejoin: miter; stroke-linecap: square"/>
   </g>
   <g id="text_12">
    <!-- JMH Benchmark · JDK 25 · Linux -->
    <g style="fill: #94a3b8" transform="translate(267.926562 55.92) scale(0.1 -0.1)">
     <defs>
      <path id="DejaVuSans-Oblique-2d" d="M 1069 4666 
L 1703 4666 
L 856 325 
Q 691 -522 298 -901 
Q -94 -1281 -800 -1281 
L -1050 -1281 
L -947 -750 
L -750 -750 
Q -328 -750 -109 -509 
Q 109 -269 225 325 
L 1069 4666 
z
" transform="scale(0.015625)"/>
      <path id="DejaVuSans-Oblique-30" d="M 1081 4666 
L 2028 4666 
L 2572 1522 
L 4378 4666 
L 5350 4666 
L 4441 0 
L 3828 0 
L 4622 4091 
L 2791 897 
L 2175 897 
L 1581 4103 
L 788 0 
L 172 0 
L 1081 4666 
z
" transform="scale(0.015625)"/>
      <path id="DejaVuSans-Oblique-2b" d="M 1081 4666 
L 1716 4666 
L 1344 2753 
L 3634 2753 
L 4006 4666 
L 4641 4666 
L 3731 0 
L 3097 0 
L 3531 2222 
L 1241 2222 
L 806 0 
L 172 0 
L 1081 4666 
z
" transform="scale(0.015625)"/>
      <path id="DejaVuSans-Oblique-3" transform="scale(0.015625)"/>
      <path id="DejaVuSans-Oblique-25" d="M 1081 4666 
L 2694 4666 
Q 3350 4666 3675 4422 
Q 4000 4178 4000 3688 
Q 4000 3238 3720 2911 
Q 3441 2584 2988 2516 
Q 3375 2428 3569 2181 
Q 3763 1934 3763 1522 
Q 3763 819 3242 409 
Q 2722 0 1819 0 
L 172 0 
L 1081 4666 
z
M 1234 2228 
L 903 519 
L 1919 519 
Q 2491 519 2800 781 
Q 3109 1044 3109 1522 
Q 3109 1891 2904 2059 
Q 2700 2228 2247 2228 
L 1234 2228 
z
M 1606 4147 
L 1331 2741 
L 2272 2741 
Q 2775 2741 3058 2959 
Q 3341 3178 3341 3566 
Q 3341 3869 3150 4008 
Q 2959 4147 2541 4147 
L 1606 4147 
z
" transform="scale(0.015625)"/>
      <path id="DejaVuSans-Oblique-48" d="M 3078 2063 
Q 3088 2113 3092 2166 
Q 3097 2219 3097 2272 
Q 3097 2653 2873 2875 
Q 2650 3097 2266 3097 
Q 1838 3097 1509 2826 
Q 1181 2556 1013 2059 
L 3078 2063 
z
M 3578 1613 
L 903 1613 
Q 884 1494 878 1425 
Q 872 1356 872 1306 
Q 872 872 1139 634 
Q 1406 397 1894 397 
Q 2269 397 2603 481 
Q 2938 566 3225 728 
L 3116 159 
Q 2806 34 2476 -28 
Q 2147 -91 1806 -91 
Q 1078 -91 686 257 
Q 294 606 294 1247 
Q 294 1794 489 2264 
Q 684 2734 1063 3103 
Q 1306 3334 1642 3459 
Q 1978 3584 2356 3584 
Q 2950 3584 3301 3228 
Q 3653 2872 3653 2272 
Q 3653 2128 3634 1964 
Q 3616 1800 3578 1613 
z
" transform="scale(0.015625)"/>
      <path id="DejaVuSans-Oblique-51" d="M 3566 2113 
L 3156 0 
L 2578 0 
L 2988 2091 
Q 3016 2238 3031 2350 
Q 3047 2463 3047 2528 
Q 3047 2791 2881 2937 
Q 2716 3084 2419 3084 
Q 1956 3084 1622 2776 
Q 1288 2469 1184 1941 
L 800 0 
L 225 0 
L 903 3500 
L 1478 3500 
L 1363 2950 
Q 1603 3253 1940 3418 
Q 2278 3584 2650 3584 
Q 3113 3584 3367 3334 
Q 3622 3084 3622 2631 
Q 3622 2519 3608 2391 
Q 3594 2263 3566 2113 
z
" transform="scale(0.015625)"/>
      <path id="DejaVuSans-Oblique-46" d="M 3431 3366 
L 3316 2797 
Q 3109 2947 2876 3022 
Q 2644 3097 2394 3097 
Q 2119 3097 1870 3000 
Q 1622 2903 1453 2725 
Q 1184 2453 1037 2087 
Q 891 1722 891 1331 
Q 891 859 1127 628 
Q 1363 397 1844 397 
Q 2081 397 2348 469 
Q 2616 541 2906 684 
L 2797 116 
Q 2547 13 2283 -39 
Q 2019 -91 1741 -91 
Q 1044 -91 669 257 
Q 294 606 294 1253 
Q 294 1797 489 2255 
Q 684 2713 1069 3078 
Q 1331 3328 1684 3456 
Q 2038 3584 2456 3584 
Q 2700 3584 2940 3529 
Q 3181 3475 3431 3366 
z
" transform="scale(0.015625)"/>
      <path id="DejaVuSans-Oblique-4b" d="M 3566 2113 
L 3156 0 
L 2578 0 
L 2988 2091 
Q 3016 2238 3031 2350 
Q 3047 2463 3047 2528 
Q 3047 2791 2881 2937 
Q 2716 3084 2419 3084 
Q 1956 3084 1617 2771 
Q 1278 2459 1178 1941 
L 800 0 
L 225 0 
L 1172 4863 
L 1747 4863 
L 1375 2950 
Q 1594 3244 1934 3414 
Q 2275 3584 2650 3584 
Q 3113 3584 3367 3334 
Q 3622 3084 3622 2631 
Q 3622 2519 3608 2391 
Q 3594 2263 3566 2113 
z
" transform="scale(0.015625)"/>
      <path id="DejaVuSans-Oblique-50" d="M 5747 2113 
L 5338 0 
L 4763 0 
L 5166 2094 
Q 5191 2228 5203 2325 
Q 5216 2422 5216 2491 
Q 5216 2772 5059 2928 
Q 4903 3084 4622 3084 
Q 4203 3084 3875 2770 
Q 3547 2456 3450 1953 
L 3066 0 
L 2491 0 
L 2900 2094 
Q 2925 2209 2937 2307 
Q 2950 2406 2950 2484 
Q 2950 2769 2794 2926 
Q 2638 3084 2363 3084 
Q 1938 3084 1609 2770 
Q 1281 2456 1184 1953 
L 800 0 
L 225 0 
L 909 3500 
L 1484 3500 
L 1375 2956 
Q 1609 3263 1923 3423 
Q 2238 3584 2597 3584 
Q 2978 3584 3223 3384 
Q 3469 3184 3519 2828 
Q 3781 3197 4126 3390 
Q 4472 3584 4856 3584 
Q 5306 3584 5551 3325 
Q 5797 3066 5797 2591 
Q 5797 2488 5784 2364 
Q 5772 2241 5747 2113 
z
" transform="scale(0.015625)"/>
      <path id="DejaVuSans-Oblique-44" d="M 3438 1997 
L 3047 0 
L 2472 0 
L 2578 531 
Q 2325 219 2001 64 
Q 1678 -91 1281 -91 
Q 834 -91 548 182 
Q 263 456 263 884 
Q 263 1497 752 1853 
Q 1241 2209 2100 2209 
L 2900 2209 
L 2931 2363 
Q 2938 2388 2941 2417 
Q 2944 2447 2944 2509 
Q 2944 2788 2717 2942 
Q 2491 3097 2081 3097 
Q 1800 3097 1504 3025 
Q 1209 2953 897 2809 
L 997 3341 
Q 1322 3463 1633 3523 
Q 1944 3584 2234 3584 
Q 2853 3584 3176 3315 
Q 3500 3047 3500 2534 
Q 3500 2431 3484 2292 
Q 3469 2153 3438 1997 
z
M 2816 1759 
L 2241 1759 
Q 1534 1759 1195 1570 
Q 856 1381 856 984 
Q 856 709 1029 553 
Q 1203 397 1509 397 
Q 1978 397 2328 733 
Q 2678 1069 2791 1631 
L 2816 1759 
z
" transform="scale(0.015625)"/>
      <path id="DejaVuSans-Oblique-55" d="M 2853 2969 
Q 2766 3016 2653 3041 
Q 2541 3066 2413 3066 
Q 1953 3066 1609 2717 
Q 1266 2369 1153 1784 
L 800 0 
L 225 0 
L 909 3500 
L 1484 3500 
L 1375 2956 
Q 1603 3259 1920 3421 
Q 2238 3584 2597 3584 
Q 2691 3584 2781 3573 
Q 2872 3563 2963 3538 
L 2853 2969 
z
" transform="scale(0.015625)"/>
      <path id="DejaVuSans-Oblique-4e" d="M 1172 4863 
L 1747 4863 
L 1197 2028 
L 3169 3500 
L 3916 3500 
L 1716 1825 
L 3322 0 
L 2625 0 
L 1131 1709 
L 800 0 
L 225 0 
L 1172 4863 
z
" transform="scale(0.015625)"/>
      <path id="DejaVuSans-Oblique-79" d="M 884 2619 
L 1544 2619 
L 1388 1825 
L 728 1825 
L 884 2619 
z
" transform="scale(0.015625)"/>
      <path id="DejaVuSans-Oblique-27" d="M 1081 4666 
L 2438 4666 
Q 3519 4666 4070 4208 
Q 4622 3750 4622 2847 
Q 4622 2250 4412 1698 
Q 4203 1147 3834 769 
Q 3463 381 2891 190 
Q 2319 0 1538 0 
L 172 0 
L 1081 4666 
z
M 1613 4147 
L 909 519 
L 1734 519 
Q 2794 519 3375 1128 
Q 3956 1738 3956 2847 
Q 3956 3519 3581 3833 
Q 3206 4147 2406 4147 
L 1613 4147 
z
" transform="scale(0.015625)"/>
      <path id="DejaVuSans-Oblique-2e" d="M 1081 4666 
L 1716 4666 
L 1331 2700 
L 3781 4666 
L 4622 4666 
L 1850 2438 
L 3878 0 
L 3109 0 
L 1247 2272 
L 806 0 
L 172 0 
L 1081 4666 
z
" transform="scale(0.015625)"/>
      <path id="DejaVuSans-Oblique-15" d="M 2950 2253 
L 934 525 
L 3163 525 
L 3053 0 
L 25 0 
L 128 531 
L 2234 2338 
Q 2656 2703 2832 2979 
Q 3009 3256 3009 3547 
Q 3009 3850 2796 4040 
Q 2584 4231 2241 4231 
Q 1944 4231 1581 4125 
Q 1219 4019 806 3816 
L 922 4441 
Q 1309 4594 1662 4672 
Q 2016 4750 2316 4750 
Q 2928 4750 3301 4425 
Q 3675 4100 3675 3572 
Q 3675 3216 3497 2892 
Q 3319 2569 2950 2253 
z
" transform="scale(0.015625)"/>
      <path id="DejaVuSans-Oblique-18" d="M 3719 4666 
L 3622 4141 
L 1691 4141 
L 1466 2988 
Q 1609 3034 1757 3056 
Q 1906 3078 2059 3078 
Q 2706 3078 3081 2731 
Q 3456 2384 3456 1791 
Q 3456 1375 3264 994 
Q 3072 613 2719 325 
Q 2469 125 2108 17 
Q 1747 -91 1319 -91 
Q 1038 -91 744 -41 
Q 450 9 128 109 
L 244 697 
Q 531 556 820 486 
Q 1109 416 1403 416 
Q 2013 416 2411 781 
Q 2809 1147 2809 1697 
Q 2809 2103 2548 2328 
Q 2288 2553 1819 2553 
Q 1572 2553 1305 2495 
Q 1038 2438 756 2322 
L 1209 4666 
L 3719 4666 
z
" transform="scale(0.015625)"/>
      <path id="DejaVuSans-Oblique-2f" d="M 1075 4666 
L 1709 4666 
L 909 525 
L 3181 525 
L 3078 0 
L 172 0 
L 1075 4666 
z
" transform="scale(0.015625)"/>
      <path id="DejaVuSans-Oblique-4c" d="M 1172 4863 
L 1747 4863 
L 1606 4134 
L 1031 4134 
L 1172 4863 
z
M 909 3500 
L 1484 3500 
L 800 0 
L 225 0 
L 909 3500 
z
" transform="scale(0.015625)"/>
      <path id="DejaVuSans-Oblique-58" d="M 428 1388 
L 838 3500 
L 1416 3500 
L 1006 1409 
Q 975 1256 961 1147 
Q 947 1038 947 966 
Q 947 700 1109 554 
Q 1272 409 1569 409 
Q 2031 409 2368 721 
Q 2706 1034 2809 1563 
L 3194 3500 
L 3769 3500 
L 3091 0 
L 2516 0 
L 2631 550 
Q 2388 244 2052 76 
Q 1716 -91 1338 -91 
Q 878 -91 622 161 
Q 366 413 366 863 
Q 366 956 381 1097 
Q 397 1238 428 1388 
z
" transform="scale(0.015625)"/>
      <path id="DejaVuSans-Oblique-5b" d="M 3841 3500 
L 2234 1784 
L 3219 0 
L 2559 0 
L 1819 1388 
L 531 0 
L -166 0 
L 1556 1844 
L 641 3500 
L 1300 3500 
L 1972 2234 
L 3144 3500 
L 3841 3500 
z
" transform="scale(0.015625)"/>
     </defs>
     <use xlink:href="#DejaVuSans-Oblique-2d"/>
     <use xlink:href="#DejaVuSans-Oblique-30" transform="translate(29.5 0)"/>
     <use xlink:href="#DejaVuSans-Oblique-2b" transform="translate(115.78125 0)"/>
     <use xlink:href="#DejaVuSans-Oblique-3" transform="translate(190.984375 0)"/>
     <use xlink:href="#DejaVuSans-Oblique-25" transform="translate(222.765625 0)"/>
     <use xlink:href="#DejaVuSans-Oblique-48" transform="translate(291.375 0)"/>
     <use xlink:href="#DejaVuSans-Oblique-51" transform="translate(352.90625 0)"/>
     <use xlink:href="#DejaVuSans-Oblique-46" transform="translate(416.28125 0)"/>
     <use xlink:href="#DejaVuSans-Oblique-4b" transform="translate(471.265625 0)"/>
     <use xlink:href="#DejaVuSans-Oblique-50" transform="translate(534.640625 0)"/>
     <use xlink:href="#DejaVuSans-Oblique-44" transform="translate(632.046875 0)"/>
     <use xlink:href="#DejaVuSans-Oblique-55" transform="translate(693.328125 0)"/>
     <use xlink:href="#DejaVuSans-Oblique-4e" transform="translate(734.4375 0)"/>
     <use xlink:href="#DejaVuSans-Oblique-3" transform="translate(792.34375 0)"/>
     <use xlink:href="#DejaVuSans-Oblique-79" transform="translate(824.125 0)"/>
     <use xlink:href="#DejaVuSans-Oblique-3" transform="translate(855.90625 0)"/>
     <use xlink:href="#DejaVuSans-Oblique-2d" transform="translate(887.6875 0)"/>
     <use xlink:href="#DejaVuSans-Oblique-27" transform="translate(917.1875 0)"/>
     <use xlink:href="#DejaVuSans-Oblique-2e" transform="translate(994.1875 0)"/>
     <use xlink:href="#DejaVuSans-Oblique-3" transform="translate(1059.765625 0)"/>
     <use xlink:href="#DejaVuSans-Oblique-15" transform="translate(1091.546875 0)"/>
     <use xlink:href="#DejaVuSans-Oblique-18" transform="translate(1155.171875 0)"/>
     <use xlink:href="#DejaVuSans-Oblique-3" transform="translate(1218.796875 0)"/>
     <use xlink:href="#DejaVuSans-Oblique-79" transform="translate(1250.578125 0)"/>
     <use xlink:href="#DejaVuSans-Oblique-3" transform="translate(1282.359375 0)"/>
     <use xlink:href="#DejaVuSans-Oblique-2f" transform="translate(1314.140625 0)"/>
     <use xlink:href="#DejaVuSans-Oblique-4c" transform="translate(1369.859375 0)"/>
     <use xlink:href="#DejaVuSans-Oblique-51" transform="translate(1397.640625 0)"/>
     <use xlink:href="#DejaVuSans-Oblique-58" transform="translate(1461.015625 0)"/>
     <use xlink:href="#DejaVuSans-Oblique-5b" transform="translate(1524.390625 0)"/>
    </g>
   </g>
   <g id="legend_1">
    <g id="patch_7">
     <path d="M 23.6 636.3472 
L 670.610938 636.3472 
Q 672.610938 636.3472 672.610938 634.3472 
L 672.610938 620.346419 
Q 672.610938 618.346419 670.610938 618.346419 
L 23.6 618.346419 
Q 21.6 618.346419 21.6 620.346419 
L 21.6 634.3472 
Q 21.6 636.3472 23.6 636.3472 
L 23.6 636.3472 
z
" style="fill: none; opacity: 0"/>
    </g>
    <g id="line2d_15">
     <path d="M 25.6 626.444856 
L 35.6 626.444856 
L 45.6 626.444856 
" style="fill: none; stroke: #10b981; stroke-width: 2.2; stroke-linecap: square"/>
     <g>
      <use xlink:href="#mbc962f62eb" x="35.6" y="626.444856" style="fill: #10b981; stroke: #10b981"/>
     </g>
    </g>
    <g id="text_13">
     <!-- SPSC Queue (Single Producer → Single Consumer) -->
     <g style="fill: #e2e8f0" transform="translate(53.6 629.944856) scale(0.1 -0.1)">
      <defs>
       <path id="DejaVuSans-36" d="M 3425 4513 
L 3425 3897 
Q 3066 4069 2747 4153 
Q 2428 4238 2131 4238 
Q 1616 4238 1336 4038 
Q 1056 3838 1056 3469 
Q 1056 3159 1242 3001 
Q 1428 2844 1947 2747 
L 2328 2669 
Q 3034 2534 3370 2195 
Q 3706 1856 3706 1288 
Q 3706 609 3251 259 
Q 2797 -91 1919 -91 
Q 1588 -91 1214 -16 
Q 841 59 441 206 
L 441 856 
Q 825 641 1194 531 
Q 1563 422 1919 422 
Q 2459 422 2753 634 
Q 3047 847 3047 1241 
Q 3047 1584 2836 1778 
Q 2625 1972 2144 2069 
L 1759 2144 
Q 1053 2284 737 2584 
Q 422 2884 422 3419 
Q 422 4038 858 4394 
Q 1294 4750 2059 4750 
Q 2388 4750 2728 4690 
Q 3069 4631 3425 4513 
z
" transform="scale(0.015625)"/>
       <path id="DejaVuSans-33" d="M 1259 4147 
L 1259 2394 
L 2053 2394 
Q 2494 2394 2734 2622 
Q 2975 2850 2975 3272 
Q 2975 3691 2734 3919 
Q 2494 4147 2053 4147 
L 1259 4147 
z
M 628 4666 
L 2053 4666 
Q 2838 4666 3239 4311 
Q 3641 3956 3641 3272 
Q 3641 2581 3239 2228 
Q 2838 1875 2053 1875 
L 1259 1875 
L 1259 0 
L 628 0 
L 628 4666 
z
" transform="scale(0.015625)"/>
       <path id="DejaVuSans-26" d="M 4122 4306 
L 4122 3641 
Q 3803 3938 3442 4084 
Q 3081 4231 2675 4231 
Q 1875 4231 1450 3742 
Q 1025 3253 1025 2328 
Q 1025 1406 1450 917 
Q 1875 428 2675 428 
Q 3081 428 3442 575 
Q 3803 722 4122 1019 
L 4122 359 
Q 3791 134 3420 21 
Q 3050 -91 2638 -91 
Q 1578 -91 968 557 
Q 359 1206 359 2328 
Q 359 3453 968 4101 
Q 1578 4750 2638 4750 
Q 3056 4750 3426 4639 
Q 3797 4528 4122 4306 
z
" transform="scale(0.015625)"/>
       <path id="DejaVuSans-3" transform="scale(0.015625)"/>
       <path id="DejaVuSans-34" d="M 2522 4238 
Q 1834 4238 1429 3725 
Q 1025 3213 1025 2328 
Q 1025 1447 1429 934 
Q 1834 422 2522 422 
Q 3209 422 3611 934 
Q 4013 1447 4013 2328 
Q 4013 3213 3611 3725 
Q 3209 4238 2522 4238 
z
M 3406 84 
L 4238 -825 
L 3475 -825 
L 2784 -78 
Q 2681 -84 2626 -87 
Q 2572 -91 2522 -91 
Q 1538 -91 948 567 
Q 359 1225 359 2328 
Q 359 3434 948 4092 
Q 1538 4750 2522 4750 
Q 3503 4750 4090 4092 
Q 4678 3434 4678 2328 
Q 4678 1516 4351 937 
Q 4025 359 3406 84 
z
" transform="scale(0.015625)"/>
       <path id="DejaVuSans-58" d="M 544 1381 
L 544 3500 
L 1119 3500 
L 1119 1403 
Q 1119 906 1312 657 
Q 1506 409 1894 409 
Q 2359 409 2629 706 
Q 2900 1003 2900 1516 
L 2900 3500 
L 3475 3500 
L 3475 0 
L 2900 0 
L 2900 538 
Q 2691 219 2414 64 
Q 2138 -91 1772 -91 
Q 1169 -91 856 284 
Q 544 659 544 1381 
z
M 1991 3584 
L 1991 3584 
z
" transform="scale(0.015625)"/>
       <path id="DejaVuSans-48" d="M 3597 1894 
L 3597 1613 
L 953 1613 
Q 991 1019 1311 708 
Q 1631 397 2203 397 
Q 2534 397 2845 478 
Q 3156 559 3463 722 
L 3463 178 
Q 3153 47 2828 -22 
Q 2503 -91 2169 -91 
Q 1331 -91 842 396 
Q 353 884 353 1716 
Q 353 2575 817 3079 
Q 1281 3584 2069 3584 
Q 2775 3584 3186 3129 
Q 3597 2675 3597 1894 
z
M 3022 2063 
Q 3016 2534 2758 2815 
Q 2500 3097 2075 3097 
Q 1594 3097 1305 2825 
Q 1016 2553 972 2059 
L 3022 2063 
z
" transform="scale(0.015625)"/>
       <path id="DejaVuSans-b" d="M 1984 4856 
Q 1566 4138 1362 3434 
Q 1159 2731 1159 2009 
Q 1159 1288 1364 580 
Q 1569 -128 1984 -844 
L 1484 -844 
Q 1016 -109 783 600 
Q 550 1309 550 2009 
Q 550 2706 781 3412 
Q 1013 4119 1484 4856 
L 1984 4856 
z
" transform="scale(0.015625)"/>
       <path id="DejaVuSans-4c" d="M 603 3500 
L 1178 3500 
L 1178 0 
L 603 0 
L 603 3500 
z
M 603 4863 
L 1178 4863 
L 1178 4134 
L 603 4134 
L 603 4863 
z
" transform="scale(0.015625)"/>
       <path id="DejaVuSans-51" d="M 3513 2113 
L 3513 0 
L 2938 0 
L 2938 2094 
Q 2938 2591 2744 2837 
Q 2550 3084 2163 3084 
Q 1697 3084 1428 2787 
Q 1159 2491 1159 1978 
L 1159 0 
L 581 0 
L 581 3500 
L 1159 3500 
L 1159 2956 
Q 1366 3272 1645 3428 
Q 1925 3584 2291 3584 
Q 2894 3584 3203 3211 
Q 3513 2838 3513 2113 
z
" transform="scale(0.015625)"/>
       <path id="DejaVuSans-4a" d="M 2906 1791 
Q 2906 2416 2648 2759 
Q 2391 3103 1925 3103 
Q 1463 3103 1205 2759 
Q 947 2416 947 1791 
Q 947 1169 1205 825 
Q 1463 481 1925 481 
Q 2391 481 2648 825 
Q 2906 1169 2906 1791 
z
M 3481 434 
Q 3481 -459 3084 -895 
Q 2688 -1331 1869 -1331 
Q 1566 -1331 1297 -1286 
Q 1028 -1241 775 -1147 
L 775 -588 
Q 1028 -725 1275 -790 
Q 1522 -856 1778 -856 
Q 2344 -856 2625 -561 
Q 2906 -266 2906 331 
L 2906 616 
Q 2728 306 2450 153 
Q 2172 0 1784 0 
Q 1141 0 747 490 
Q 353 981 353 1791 
Q 353 2603 747 3093 
Q 1141 3584 1784 3584 
Q 2172 3584 2450 3431 
Q 2728 3278 2906 2969 
L 2906 3500 
L 3481 3500 
L 3481 434 
z
" transform="scale(0.015625)"/>
       <path id="DejaVuSans-4f" d="M 603 4863 
L 1178 4863 
L 1178 0 
L 603 0 
L 603 4863 
z
" transform="scale(0.015625)"/>
       <path id="DejaVuSans-55" d="M 2631 2963 
Q 2534 3019 2420 3045 
Q 2306 3072 2169 3072 
Q 1681 3072 1420 2755 
Q 1159 2438 1159 1844 
L 1159 0 
L 581 0 
L 581 3500 
L 1159 3500 
L 1159 2956 
Q 1341 3275 1631 3429 
Q 1922 3584 2338 3584 
Q 2397 3584 2469 3576 
Q 2541 3569 2628 3553 
L 2631 2963 
z
" transform="scale(0.015625)"/>
       <path id="DejaVuSans-52" d="M 1959 3097 
Q 1497 3097 1228 2736 
Q 959 2375 959 1747 
Q 959 1119 1226 758 
Q 1494 397 1959 397 
Q 2419 397 2687 759 
Q 2956 1122 2956 1747 
Q 2956 2369 2687 2733 
Q 2419 3097 1959 3097 
z
M 1959 3584 
Q 2709 3584 3137 3096 
Q 3566 2609 3566 1747 
Q 3566 888 3137 398 
Q 2709 -91 1959 -91 
Q 1206 -91 779 398 
Q 353 888 353 1747 
Q 353 2609 779 3096 
Q 1206 3584 1959 3584 
z
" transform="scale(0.015625)"/>
       <path id="DejaVuSans-47" d="M 2906 2969 
L 2906 4863 
L 3481 4863 
L 3481 0 
L 2906 0 
L 2906 525 
Q 2725 213 2448 61 
Q 2172 -91 1784 -91 
Q 1150 -91 751 415 
Q 353 922 353 1747 
Q 353 2572 751 3078 
Q 1150 3584 1784 3584 
Q 2172 3584 2448 3432 
Q 2725 3281 2906 2969 
z
M 947 1747 
Q 947 1113 1208 752 
Q 1469 391 1925 391 
Q 2381 391 2643 752 
Q 2906 1113 2906 1747 
Q 2906 2381 2643 2742 
Q 2381 3103 1925 3103 
Q 1469 3103 1208 2742 
Q 947 2381 947 1747 
z
" transform="scale(0.015625)"/>
       <path id="DejaVuSans-46" d="M 3122 3366 
L 3122 2828 
Q 2878 2963 2633 3030 
Q 2388 3097 2138 3097 
Q 1578 3097 1268 2742 
Q 959 2388 959 1747 
Q 959 1106 1268 751 
Q 1578 397 2138 397 
Q 2388 397 2633 464 
Q 2878 531 3122 666 
L 3122 134 
Q 2881 22 2623 -34 
Q 2366 -91 2075 -91 
Q 1284 -91 818 406 
Q 353 903 353 1747 
Q 353 2603 823 3093 
Q 1294 3584 2113 3584 
Q 2378 3584 2631 3529 
Q 2884 3475 3122 3366 
z
" transform="scale(0.015625)"/>
       <path id="DejaVuSans-c1c" d="M 5050 2147 
L 5050 1866 
L 3822 638 
L 3447 1013 
L 4175 1741 
L 366 1741 
L 366 2272 
L 4175 2272 
L 3447 3000 
L 3822 3375 
L 5050 2147 
z
" transform="scale(0.015625)"/>
       <path id="DejaVuSans-56" d="M 2834 3397 
L 2834 2853 
Q 2591 2978 2328 3040 
Q 2066 3103 1784 3103 
Q 1356 3103 1142 2972 
Q 928 2841 928 2578 
Q 928 2378 1081 2264 
Q 1234 2150 1697 2047 
L 1894 2003 
Q 2506 1872 2764 1633 
Q 3022 1394 3022 966 
Q 3022 478 2636 193 
Q 2250 -91 1575 -91 
Q 1294 -91 989 -36 
Q 684 19 347 128 
L 347 722 
Q 666 556 975 473 
Q 1284 391 1588 391 
Q 1994 391 2212 530 
Q 2431 669 2431 922 
Q 2431 1156 2273 1281 
Q 2116 1406 1581 1522 
L 1381 1569 
Q 847 1681 609 1914 
Q 372 2147 372 2553 
Q 372 3047 722 3315 
Q 1072 3584 1716 3584 
Q 2034 3584 2315 3537 
Q 2597 3491 2834 3397 
z
" transform="scale(0.015625)"/>
       <path id="DejaVuSans-50" d="M 3328 2828 
Q 3544 3216 3844 3400 
Q 4144 3584 4550 3584 
Q 5097 3584 5394 3201 
Q 5691 2819 5691 2113 
L 5691 0 
L 5113 0 
L 5113 2094 
Q 5113 2597 4934 2840 
Q 4756 3084 4391 3084 
Q 3944 3084 3684 2787 
Q 3425 2491 3425 1978 
L 3425 0 
L 2847 0 
L 2847 2094 
Q 2847 2600 2669 2842 
Q 2491 3084 2119 3084 
Q 1678 3084 1418 2786 
Q 1159 2488 1159 1978 
L 1159 0 
L 581 0 
L 581 3500 
L 1159 3500 
L 1159 2956 
Q 1356 3278 1631 3431 
Q 1906 3584 2284 3584 
Q 2666 3584 2933 3390 
Q 3200 3197 3328 2828 
z
" transform="scale(0.015625)"/>
       <path id="DejaVuSans-c" d="M 513 4856 
L 1013 4856 
Q 1481 4119 1714 3412 
Q 1947 2706 1947 2009 
Q 1947 1309 1714 600 
Q 1481 -109 1013 -844 
L 513 -844 
Q 928 -128 1133 580 
Q 1338 1288 1338 2009 
Q 1338 2731 1133 3434 
Q 928 4138 513 4856 
z
" transform="scale(0.015625)"/>
      </defs>
      <use xlink:href="#DejaVuSans-36"/>
      <use xlink:href="#DejaVuSans-33" transform="translate(63.484375 0)"/>
      <use xlink:href="#DejaVuSans-36" transform="translate(123.78125 0)"/>
      <use xlink:href="#DejaVuSans-26" transform="translate(187.265625 0)"/>
      <use xlink:href="#DejaVuSans-3" transform="translate(257.09375 0)"/>
      <use xlink:href="#DejaVuSans-34" transform="translate(288.875 0)"/>
      <use xlink:href="#DejaVuSans-58" transform="translate(367.59375 0)"/>
      <use xlink:href="#DejaVuSans-48" transform="translate(430.96875 0)"/>
      <use xlink:href="#DejaVuSans-58" transform="translate(492.5 0)"/>
      <use xlink:href="#DejaVuSans-48" transform="translate(555.875 0)"/>
      <use xlink:href="#DejaVuSans-3" transform="translate(617.40625 0)"/>
      <use xlink:href="#DejaVuSans-b" transform="translate(649.1875 0)"/>
      <use xlink:href="#DejaVuSans-36" transform="translate(688.203125 0)"/>
      <use xlink:href="#DejaVuSans-4c" transform="translate(751.6875 0)"/>
      <use xlink:href="#DejaVuSans-51" transform="translate(779.46875 0)"/>
      <use xlink:href="#DejaVuSans-4a" transform="translate(842.84375 0)"/>
      <use xlink:href="#DejaVuSans-4f" transform="translate(906.328125 0)"/>
      <use xlink:href="#DejaVuSans-48" transform="translate(934.109375 0)"/>
      <use xlink:href="#DejaVuSans-3" transform="translate(995.640625 0)"/>
      <use xlink:href="#DejaVuSans-33" transform="translate(1027.421875 0)"/>
      <use xlink:href="#DejaVuSans-55" transform="translate(1085.96875 0)"/>
      <use xlink:href="#DejaVuSans-52" transform="translate(1124.875 0)"/>
      <use xlink:href="#DejaVuSans-47" transform="translate(1186.0625 0)"/>
      <use xlink:href="#DejaVuSans-58" transform="translate(1249.546875 0)"/>
      <use xlink:href="#DejaVuSans-46" transform="translate(1312.921875 0)"/>
      <use xlink:href="#DejaVuSans-48" transform="translate(1367.90625 0)"/>
      <use xlink:href="#DejaVuSans-55" transform="translate(1429.4375 0)"/>
      <use xlink:href="#DejaVuSans-3" transform="translate(1470.546875 0)"/>
      <use xlink:href="#DejaVuSans-c1c" transform="translate(1502.328125 0)"/>
      <use xlink:href="#DejaVuSans-3" transform="translate(1586.125 0)"/>
      <use xlink:href="#DejaVuSans-36" transform="translate(1617.90625 0)"/>
      <use xlink:href="#DejaVuSans-4c" transform="translate(1681.390625 0)"/>
      <use xlink:href="#DejaVuSans-51" transform="translate(1709.171875 0)"/>
      <use xlink:href="#DejaVuSans-4a" transform="translate(1772.546875 0)"/>
      <use xlink:href="#DejaVuSans-4f" transform="translate(1836.03125 0)"/>
      <use xlink:href="#DejaVuSans-48" transform="translate(1863.8125 0)"/>
      <use xlink:href="#DejaVuSans-3" transform="translate(1925.34375 0)"/>
      <use xlink:href="#DejaVuSans-26" transform="translate(1957.125 0)"/>
      <use xlink:href="#DejaVuSans-52" transform="translate(2026.953125 0)"/>
      <use xlink:href="#DejaVuSans-51" transform="translate(2088.140625 0)"/>
      <use xlink:href="#DejaVuSans-56" transform="translate(2151.515625 0)"/>
      <use xlink:href="#DejaVuSans-58" transform="translate(2203.609375 0)"/>
      <use xlink:href="#DejaVuSans-50" transform="translate(2266.984375 0)"/>
      <use xlink:href="#DejaVuSans-48" transform="translate(2364.390625 0)"/>
      <use xlink:href="#DejaVuSans-55" transform="translate(2425.921875 0)"/>
      <use xlink:href="#DejaVuSans-c" transform="translate(2467.03125 0)"/>
     </g>
    </g>
    <g id="line2d_16">
     <path d="M 324.204687 626.444856 
L 334.204687 626.444856 
L 344.204687 626.444856 
" style="fill: none; stroke: #38bdf8; stroke-width: 2.2; stroke-linecap: square"/>
     <g>
      <use xlink:href="#m83f19402c8" x="334.204687" y="626.444856" style="fill: #38bdf8; stroke: #38bdf8"/>
     </g>
    </g>
    <g id="text_14">
     <!-- Scaling Low  (1:1 · 4:1) -->
     <g style="fill: #e2e8f0" transform="translate(352.204687 629.944856) scale(0.1 -0.1)">
      <defs>
       <path id="DejaVuSans-44" d="M 2194 1759 
Q 1497 1759 1228 1600 
Q 959 1441 959 1056 
Q 959 750 1161 570 
Q 1363 391 1709 391 
Q 2188 391 2477 730 
Q 2766 1069 2766 1631 
L 2766 1759 
L 2194 1759 
z
M 3341 1997 
L 3341 0 
L 2766 0 
L 2766 531 
Q 2569 213 2275 61 
Q 1981 -91 1556 -91 
Q 1019 -91 701 211 
Q 384 513 384 1019 
Q 384 1609 779 1909 
Q 1175 2209 1959 2209 
L 2766 2209 
L 2766 2266 
Q 2766 2663 2505 2880 
Q 2244 3097 1772 3097 
Q 1472 3097 1187 3025 
Q 903 2953 641 2809 
L 641 3341 
Q 956 3463 1253 3523 
Q 1550 3584 1831 3584 
Q 2591 3584 2966 3190 
Q 3341 2797 3341 1997 
z
" transform="scale(0.015625)"/>
       <path id="DejaVuSans-2f" d="M 628 4666 
L 1259 4666 
L 1259 531 
L 3531 531 
L 3531 0 
L 628 0 
L 628 4666 
z
" transform="scale(0.015625)"/>
       <path id="DejaVuSans-5a" d="M 269 3500 
L 844 3500 
L 1563 769 
L 2278 3500 
L 2956 3500 
L 3675 769 
L 4391 3500 
L 4966 3500 
L 4050 0 
L 3372 0 
L 2619 2869 
L 1863 0 
L 1184 0 
L 269 3500 
z
" transform="scale(0.015625)"/>
       <path id="DejaVuSans-1d" d="M 750 794 
L 1409 794 
L 1409 0 
L 750 0 
L 750 794 
z
M 750 3309 
L 1409 3309 
L 1409 2516 
L 750 2516 
L 750 3309 
z
" transform="scale(0.015625)"/>
       <path id="DejaVuSans-79" d="M 684 2619 
L 1344 2619 
L 1344 1825 
L 684 1825 
L 684 2619 
z
" transform="scale(0.015625)"/>
      </defs>
      <use xlink:href="#DejaVuSans-36"/>
      <use xlink:href="#DejaVuSans-46" transform="translate(63.484375 0)"/>
      <use xlink:href="#DejaVuSans-44" transform="translate(118.46875 0)"/>
      <use xlink:href="#DejaVuSans-4f" transform="translate(179.75 0)"/>
      <use xlink:href="#DejaVuSans-4c" transform="translate(207.53125 0)"/>
      <use xlink:href="#DejaVuSans-51" transform="translate(235.3125 0)"/>
      <use xlink:href="#DejaVuSans-4a" transform="translate(298.6875 0)"/>
      <use xlink:href="#DejaVuSans-3" transform="translate(362.171875 0)"/>
      <use xlink:href="#DejaVuSans-2f" transform="translate(393.953125 0)"/>
      <use xlink:href="#DejaVuSans-52" transform="translate(447.921875 0)"/>
      <use xlink:href="#DejaVuSans-5a" transform="translate(509.109375 0)"/>
      <use xlink:href="#DejaVuSans-3" transform="translate(590.890625 0)"/>
      <use xlink:href="#DejaVuSans-3" transform="translate(622.671875 0)"/>
      <use xlink:href="#DejaVuSans-b" transform="translate(654.453125 0)"/>
      <use xlink:href="#DejaVuSans-14" transform="translate(693.46875 0)"/>
      <use xlink:href="#DejaVuSans-1d" transform="translate(757.09375 0)"/>
      <use xlink:href="#DejaVuSans-14" transform="translate(790.78125 0)"/>
      <use xlink:href="#DejaVuSans-3" transform="translate(854.40625 0)"/>
      <use xlink:href="#DejaVuSans-79" transform="translate(886.1875 0)"/>
      <use xlink:href="#DejaVuSans-3" transform="translate(917.96875 0)"/>
      <use xlink:href="#DejaVuSans-17" transform="translate(949.75 0)"/>
      <use xlink:href="#DejaVuSans-1d" transform="translate(1013.375 0)"/>
      <use xlink:href="#DejaVuSans-14" transform="translate(1047.0625 0)"/>
      <use xlink:href="#DejaVuSans-c" transform="translate(1110.6875 0)"/>
     </g>
    </g>
    <g id="line2d_17">
     <path d="M 487.175 626.444856 
L 497.175 626.444856 
L 507.175 626.444856 
" style="fill: none; stroke: #f472b6; stroke-width: 2.2; stroke-linecap: square"/>
     <g>
      <use xlink:href="#m1a0765a743" x="497.175" y="626.444856" style="fill: #f472b6; stroke: #f472b6"/>
     </g>
    </g>
    <g id="text_15">
     <!-- Scaling High (8:1 · 16:4 · 32:8) -->
     <g style="fill: #e2e8f0" transform="translate(515.175 629.944856) scale(0.1 -0.1)">
      <defs>
       <path id="DejaVuSans-2b" d="M 628 4666 
L 1259 4666 
L 1259 2753 
L 3553 2753 
L 3553 4666 
L 4184 4666 
L 4184 0 
L 3553 0 
L 3553 2222 
L 1259 2222 
L 1259 0 
L 628 0 
L 628 4666 
z
" transform="scale(0.015625)"/>
       <path id="DejaVuSans-4b" d="M 3513 2113 
L 3513 0 
L 2938 0 
L 2938 2094 
Q 2938 2591 2744 2837 
Q 2550 3084 2163 3084 
Q 1697 3084 1428 2787 
Q 1159 2491 1159 1978 
L 1159 0 
L 581 0 
L 581 4863 
L 1159 4863 
L 1159 2956 
Q 1366 3272 1645 3428 
Q 1925 3584 2291 3584 
Q 2894 3584 3203 3211 
Q 3513 2838 3513 2113 
z
" transform="scale(0.015625)"/>
       <path id="DejaVuSans-16" d="M 2597 2516 
Q 3050 2419 3304 2112 
Q 3559 1806 3559 1356 
Q 3559 666 3084 287 
Q 2609 -91 1734 -91 
Q 1441 -91 1130 -33 
Q 819 25 488 141 
L 488 750 
Q 750 597 1062 519 
Q 1375 441 1716 441 
Q 2309 441 2620 675 
Q 2931 909 2931 1356 
Q 2931 1769 2642 2001 
Q 2353 2234 1838 2234 
L 1294 2234 
L 1294 2753 
L 1863 2753 
Q 2328 2753 2575 2939 
Q 2822 3125 2822 3475 
Q 2822 3834 2567 4026 
Q 2313 4219 1838 4219 
Q 1578 4219 1281 4162 
Q 984 4106 628 3988 
L 628 4550 
Q 988 4650 1302 4700 
Q 1616 4750 1894 4750 
Q 2613 4750 3031 4423 
Q 3450 4097 3450 3541 
Q 3450 3153 3228 2886 
Q 3006 2619 2597 2516 
z
" transform="scale(0.015625)"/>
      </defs>
      <use xlink:href="#DejaVuSans-36"/>
      <use xlink:href="#DejaVuSans-46" transform="translate(63.484375 0)"/>
      <use xlink:href="#DejaVuSans-44" transform="translate(118.46875 0)"/>
      <use xlink:href="#DejaVuSans-4f" transform="translate(179.75 0)"/>
      <use xlink:href="#DejaVuSans-4c" transform="translate(207.53125 0)"/>
      <use xlink:href="#DejaVuSans-51" transform="translate(235.3125 0)"/>
      <use xlink:href="#DejaVuSans-4a" transform="translate(298.6875 0)"/>
      <use xlink:href="#DejaVuSans-3" transform="translate(362.171875 0)"/>
      <use xlink:href="#DejaVuSans-2b" transform="translate(393.953125 0)"/>
      <use xlink:href="#DejaVuSans-4c" transform="translate(469.15625 0)"/>
      <use xlink:href="#DejaVuSans-4a" transform="translate(496.9375 0)"/>
      <use xlink:href="#DejaVuSans-4b" transform="translate(560.421875 0)"/>
      <use xlink:href="#DejaVuSans-3" transform="translate(623.796875 0)"/>
      <use xlink:href="#DejaVuSans-b" transform="translate(655.578125 0)"/>
      <use xlink:href="#DejaVuSans-1b" transform="translate(694.59375 0)"/>
      <use xlink:href="#DejaVuSans-1d" transform="translate(758.21875 0)"/>
      <use xlink:href="#DejaVuSans-14" transform="translate(791.90625 0)"/>
      <use xlink:href="#DejaVuSans-3" transform="translate(855.53125 0)"/>
      <use xlink:href="#DejaVuSans-79" transform="translate(887.3125 0)"/>
      <use xlink:href="#DejaVuSans-3" transform="translate(919.09375 0)"/>
      <use xlink:href="#DejaVuSans-14" transform="translate(950.875 0)"/>
      <use xlink:href="#DejaVuSans-19" transform="translate(1014.5 0)"/>
      <use xlink:href="#DejaVuSans-1d" transform="translate(1078.125 0)"/>
      <use xlink:href="#DejaVuSans-17" transform="translate(1111.8125 0)"/>
      <use xlink:href="#DejaVuSans-3" transform="translate(1175.4375 0)"/>
      <use xlink:href="#DejaVuSans-79" transform="translate(1207.21875 0)"/>
      <use xlink:href="#DejaVuSans-3" transform="translate(1239 0)"/>
      <use xlink:href="#DejaVuSans-16" transform="translate(1270.78125 0)"/>
      <use xlink:href="#DejaVuSans-15" transform="translate(1334.40625 0)"/>
      <use xlink:href="#DejaVuSans-1d" transform="translate(1398.03125 0)"/>
      <use xlink:href="#DejaVuSans-1b" transform="translate(1431.71875 0)"/>
      <use xlink:href="#DejaVuSans-c" transform="translate(1495.34375 0)"/>
     </g>
    </g>
   </g>
  </g>
  <g id="text_16">
   <!-- zThread · Multi-Dimensional Performance Radar -->
   <g style="fill: #ffffff" transform="translate(108.623594 34.517344) scale(0.17 -0.17)">
    <defs>
     <path id="DejaVuSans-Bold-79" d="M 653 2828 
L 1778 2828 
L 1778 1619 
L 653 1619 
L 653 2828 
z
" transform="scale(0.015625)"/>
     <path id="DejaVuSans-Bold-30" d="M 588 4666 
L 2119 4666 
L 3181 2169 
L 4250 4666 
L 5778 4666 
L 5778 0 
L 4641 0 
L 4641 3413 
L 3566 897 
L 2803 897 
L 1728 3413 
L 1728 0 
L 588 0 
L 588 4666 
z
" transform="scale(0.015625)"/>
     <path id="DejaVuSans-Bold-10" d="M 347 2297 
L 2309 2297 
L 2309 1388 
L 347 1388 
L 347 2297 
z
" transform="scale(0.015625)"/>
     <path id="DejaVuSans-Bold-27" d="M 1791 3756 
L 1791 909 
L 2222 909 
Q 2959 909 3348 1275 
Q 3738 1641 3738 2338 
Q 3738 3031 3350 3393 
Q 2963 3756 2222 3756 
L 1791 3756 
z
M 588 4666 
L 1856 4666 
Q 2919 4666 3439 4514 
Q 3959 4363 4331 4000 
Q 4659 3684 4818 3271 
Q 4978 2859 4978 2338 
Q 4978 1809 4818 1395 
Q 4659 981 4331 666 
Q 3956 303 3431 151 
Q 2906 0 1856 0 
L 588 0 
L 588 4666 
z
" transform="scale(0.015625)"/>
     <path id="DejaVuSans-Bold-50" d="M 3781 2919 
Q 3994 3244 4286 3414 
Q 4578 3584 4928 3584 
Q 5531 3584 5847 3212 
Q 6163 2841 6163 2131 
L 6163 0 
L 5038 0 
L 5038 1825 
Q 5041 1866 5042 1909 
Q 5044 1953 5044 2034 
Q 5044 2406 4934 2573 
Q 4825 2741 4581 2741 
Q 4263 2741 4089 2478 
Q 3916 2216 3909 1719 
L 3909 0 
L 2784 0 
L 2784 1825 
Q 2784 2406 2684 2573 
Q 2584 2741 2328 2741 
Q 2006 2741 1831 2477 
Q 1656 2213 1656 1722 
L 1656 0 
L 531 0 
L 531 3500 
L 1656 3500 
L 1656 2988 
Q 1863 3284 2130 3434 
Q 2397 3584 2719 3584 
Q 3081 3584 3359 3409 
Q 3638 3234 3781 2919 
z
" transform="scale(0.015625)"/>
     <path id="DejaVuSans-Bold-33" d="M 588 4666 
L 2584 4666 
Q 3475 4666 3951 4270 
Q 4428 3875 4428 3144 
Q 4428 2409 3951 2014 
Q 3475 1619 2584 1619 
L 1791 1619 
L 1791 0 
L 588 0 
L 588 4666 
z
M 1791 3794 
L 1791 2491 
L 2456 2491 
Q 2806 2491 2997 2661 
Q 3188 2831 3188 3144 
Q 3188 3456 2997 3625 
Q 2806 3794 2456 3794 
L 1791 3794 
z
" transform="scale(0.015625)"/>
     <path id="DejaVuSans-Bold-49" d="M 2841 4863 
L 2841 4128 
L 2222 4128 
Q 1984 4128 1890 4042 
Q 1797 3956 1797 3744 
L 1797 3500 
L 2753 3500 
L 2753 2700 
L 1797 2700 
L 1797 0 
L 678 0 
L 678 2700 
L 122 2700 
L 122 3500 
L 678 3500 
L 678 3744 
Q 678 4316 997 4589 
Q 1316 4863 1984 4863 
L 2841 4863 
z
" transform="scale(0.015625)"/>
    </defs>
    <use xlink:href="#DejaVuSans-Bold-5d"/>
    <use xlink:href="#DejaVuSans-Bold-37" transform="translate(58.203125 0)"/>
    <use xlink:href="#DejaVuSans-Bold-4b" transform="translate(126.421875 0)"/>
    <use xlink:href="#DejaVuSans-Bold-55" transform="translate(197.609375 0)"/>
    <use xlink:href="#DejaVuSans-Bold-48" transform="translate(246.921875 0)"/>
    <use xlink:href="#DejaVuSans-Bold-44" transform="translate(314.75 0)"/>
    <use xlink:href="#DejaVuSans-Bold-47" transform="translate(382.234375 0)"/>
    <use xlink:href="#DejaVuSans-Bold-3" transform="translate(453.8125 0)"/>
    <use xlink:href="#DejaVuSans-Bold-79" transform="translate(488.625 0)"/>
    <use xlink:href="#DejaVuSans-Bold-3" transform="translate(526.609375 0)"/>
    <use xlink:href="#DejaVuSans-Bold-30" transform="translate(561.421875 0)"/>
    <use xlink:href="#DejaVuSans-Bold-58" transform="translate(660.9375 0)"/>
    <use xlink:href="#DejaVuSans-Bold-4f" transform="translate(732.125 0)"/>
    <use xlink:href="#DejaVuSans-Bold-57" transform="translate(766.40625 0)"/>
    <use xlink:href="#DejaVuSans-Bold-4c" transform="translate(814.203125 0)"/>
    <use xlink:href="#DejaVuSans-Bold-10" transform="translate(848.484375 0)"/>
    <use xlink:href="#DejaVuSans-Bold-27" transform="translate(889.984375 0)"/>
    <use xlink:href="#DejaVuSans-Bold-4c" transform="translate(973 0)"/>
    <use xlink:href="#DejaVuSans-Bold-50" transform="translate(1007.28125 0)"/>
    <use xlink:href="#DejaVuSans-Bold-48" transform="translate(1111.484375 0)"/>
    <use xlink:href="#DejaVuSans-Bold-51" transform="translate(1179.3125 0)"/>
    <use xlink:href="#DejaVuSans-Bold-56" transform="translate(1250.5 0)"/>
    <use xlink:href="#DejaVuSans-Bold-4c" transform="translate(1310.015625 0)"/>
    <use xlink:href="#DejaVuSans-Bold-52" transform="translate(1344.296875 0)"/>
    <use xlink:href="#DejaVuSans-Bold-51" transform="translate(1413 0)"/>
    <use xlink:href="#DejaVuSans-Bold-44" transform="translate(1484.1875 0)"/>
    <use xlink:href="#DejaVuSans-Bold-4f" transform="translate(1551.671875 0)"/>
    <use xlink:href="#DejaVuSans-Bold-3" transform="translate(1585.953125 0)"/>
    <use xlink:href="#DejaVuSans-Bold-33" transform="translate(1620.765625 0)"/>
    <use xlink:href="#DejaVuSans-Bold-48" transform="translate(1694.0625 0)"/>
    <use xlink:href="#DejaVuSans-Bold-55" transform="translate(1761.890625 0)"/>
    <use xlink:href="#DejaVuSans-Bold-49" transform="translate(1811.203125 0)"/>
    <use xlink:href="#DejaVuSans-Bold-52" transform="translate(1854.703125 0)"/>
    <use xlink:href="#DejaVuSans-Bold-55" transform="translate(1923.40625 0)"/>
    <use xlink:href="#DejaVuSans-Bold-50" transform="translate(1972.71875 0)"/>
    <use xlink:href="#DejaVuSans-Bold-44" transform="translate(2076.921875 0)"/>
    <use xlink:href="#DejaVuSans-Bold-51" transform="translate(2144.40625 0)"/>
    <use xlink:href="#DejaVuSans-Bold-46" transform="translate(2215.59375 0)"/>
    <use xlink:href="#DejaVuSans-Bold-48" transform="translate(2274.875 0)"/>
    <use xlink:href="#DejaVuSans-Bold-3" transform="translate(2342.703125 0)"/>
    <use xlink:href="#DejaVuSans-Bold-35" transform="translate(2377.515625 0)"/>
    <use xlink:href="#DejaVuSans-Bold-44" transform="translate(2454.515625 0)"/>
    <use xlink:href="#DejaVuSans-Bold-47" transform="translate(2522 0)"/>
    <use xlink:href="#DejaVuSans-Bold-44" transform="translate(2593.578125 0)"/>
    <use xlink:href="#DejaVuSans-Bold-55" transform="translate(2661.0625 0)"/>
   </g>
  </g>
 </g>
 <defs>
  <clipPath id="p9072976d1e">
   <path d="M 593.345469 326.16 
C 593.345469 293.824059 586.975994 261.802545 574.601565 231.928032 
C 562.227136 202.053518 544.088405 174.906989 521.223443 152.042026 
C 498.35848 129.177063 471.211951 111.038333 441.337437 98.663904 
C 411.462924 86.289475 379.441409 79.92 347.105469 79.92 
C 314.769528 79.92 282.748014 86.289475 252.8735 98.663904 
C 222.998987 111.038333 195.852458 129.177063 172.987495 152.042026 
C 150.122532 174.906989 131.983801 202.053518 119.609373 231.928032 
C 107.234944 261.802545 100.865469 293.824059 100.865469 326.16 
C 100.865469 358.495941 107.234944 390.517455 119.609373 420.391968 
C 131.983801 450.266482 150.122532 477.413011 172.987495 500.277974 
C 195.852458 523.142937 222.998987 541.281667 252.8735 553.656096 
C 282.748014 566.030525 314.769528 572.4 347.105469 572.4 
C 379.441409 572.4 411.462924 566.030525 441.337437 553.656096 
C 471.211951 541.281667 498.35848 523.142937 521.223443 500.277974 
C 544.088405 477.413011 562.227136 450.266482 574.601565 420.391968 
C 586.975994 390.517455 593.345469 358.495941 593.345469 326.16 
M 347.105469 326.16 
C 347.105469 326.16 347.105469 326.16 347.105469 326.16 
C 347.105469 326.16 347.105469 326.16 347.105469 326.16 
C 347.105469 326.16 347.105469 326.16 347.105469 326.16 
C 347.105469 326.16 347.105469 326.16 347.105469 326.16 
C 347.105469 326.16 347.105469 326.16 347.105469 326.16 
C 347.105469 326.16 347.105469 326.16 347.105469 326.16 
C 347.105469 326.16 347.105469 326.16 347.105469 326.16 
C 347.105469 326.16 347.105469 326.16 347.105469 326.16 
C 347.105469 326.16 347.105469 326.16 347.105469 326.16 
C 347.105469 326.16 347.105469 326.16 347.105469 326.16 
C 347.105469 326.16 347.105469 326.16 347.105469 326.16 
C 347.105469 326.16 347.105469 326.16 347.105469 326.16 
C 347.105469 326.16 347.105469 326.16 347.105469 326.16 
C 347.105469 326.16 347.105469 326.16 347.105469 326.16 
C 347.105469 326.16 347.105469 326.16 347.105469 326.16 
C 347.105469 326.16 347.105469 326.16 347.105469 326.16 
z
"/>
  </clipPath>
 </defs>
</svg>
